STARTFONT 2.1
COMMENT
COMMENT Converted from OpenType font "OpenSans-Light.ttf" by "otf2bdf 3.0".
COMMENT
FONT -FreeType-Open Sans Light-Medium-R-Normal--14-70-149-149-P-70-ISO10646-1
SIZE 7 149 149
FONTBOUNDINGBOX 23 19 -7 -4
STARTPROPERTIES 19
FOUNDRY "FreeType"
FAMILY_NAME "Open Sans Light"
WEIGHT_NAME "Medium"
SLANT "R"
SETWIDTH_NAME "Normal"
ADD_STYLE_NAME ""
PIXEL_SIZE 14
POINT_SIZE 70
RESOLUTION_X 149
RESOLUTION_Y 149
SPACING "P"
AVERAGE_WIDTH 70
CHARSET_REGISTRY "ISO10646"
CHARSET_ENCODING "1"
FONT_ASCENT 14
FONT_DESCENT 4
COPYRIGHT "Digitized data copyright © 2010-2011, Google Corporation."
_OTF_FONTFILE "OpenSans-Light.ttf"
_OTF_PSNAME "OpenSans-Light"
ENDPROPERTIES
CHARS 883
STARTCHAR 0020
ENCODING 32
SWIDTH 276 0
DWIDTH 4 0
BBX 0 0 0 0
BITMAP
ENDCHAR
STARTCHAR 0021
ENCODING 33
SWIDTH 207 0
DWIDTH 3 0
BBX 1 10 1 0
BITMAP
80
80
80
80
80
80
80
00
00
80
ENDCHAR
STARTCHAR 0022
ENCODING 34
SWIDTH 345 0
DWIDTH 5 0
BBX 3 4 1 6
BITMAP
A0
A0
A0
A0
ENDCHAR
STARTCHAR 0023
ENCODING 35
SWIDTH 621 0
DWIDTH 9 0
BBX 9 10 0 0
BITMAP
1200
1200
1200
7F80
1200
2400
FF00
2400
2400
2400
ENDCHAR
STARTCHAR 0024
ENCODING 36
SWIDTH 552 0
DWIDTH 8 0
BBX 6 12 1 -1
BITMAP
20
7C
A0
A0
60
30
28
24
24
24
F8
20
ENDCHAR
STARTCHAR 0025
ENCODING 37
SWIDTH 759 0
DWIDTH 11 0
BBX 9 10 1 0
BITMAP
E200
9200
9400
9400
9B80
EC80
1480
1480
2480
2380
ENDCHAR
STARTCHAR 0026
ENCODING 38
SWIDTH 690 0
DWIDTH 10 0
BBX 8 10 1 0
BITMAP
38
44
44
48
30
50
89
86
82
7D
ENDCHAR
STARTCHAR 0027
ENCODING 39
SWIDTH 207 0
DWIDTH 3 0
BBX 1 4 1 6
BITMAP
80
80
80
80
ENDCHAR
STARTCHAR 0028
ENCODING 40
SWIDTH 276 0
DWIDTH 4 0
BBX 2 12 1 -2
BITMAP
40
40
80
80
80
80
80
80
80
80
40
40
ENDCHAR
STARTCHAR 0029
ENCODING 41
SWIDTH 276 0
DWIDTH 4 0
BBX 2 12 1 -2
BITMAP
80
80
40
40
40
40
40
40
40
40
80
80
ENDCHAR
STARTCHAR 002A
ENCODING 42
SWIDTH 552 0
DWIDTH 8 0
BBX 6 6 1 5
BITMAP
20
20
EC
30
50
48
ENDCHAR
STARTCHAR 002B
ENCODING 43
SWIDTH 552 0
DWIDTH 8 0
BBX 6 5 1 3
BITMAP
20
20
FC
20
20
ENDCHAR
STARTCHAR 002C
ENCODING 44
SWIDTH 207 0
DWIDTH 3 0
BBX 2 4 0 -2
BITMAP
40
40
40
80
ENDCHAR
STARTCHAR 002D
ENCODING 45
SWIDTH 345 0
DWIDTH 5 0
BBX 3 1 1 3
BITMAP
E0
ENDCHAR
STARTCHAR 002E
ENCODING 46
SWIDTH 207 0
DWIDTH 3 0
BBX 1 1 1 0
BITMAP
80
ENDCHAR
STARTCHAR 002F
ENCODING 47
SWIDTH 345 0
DWIDTH 5 0
BBX 5 10 0 0
BITMAP
08
10
10
10
20
20
40
40
40
80
ENDCHAR
STARTCHAR 0030
ENCODING 48
SWIDTH 552 0
DWIDTH 8 0
BBX 6 10 1 0
BITMAP
78
84
84
84
84
84
84
84
84
78
ENDCHAR
STARTCHAR 0031
ENCODING 49
SWIDTH 552 0
DWIDTH 8 0
BBX 3 10 2 0
BITMAP
60
A0
20
20
20
20
20
20
20
20
ENDCHAR
STARTCHAR 0032
ENCODING 50
SWIDTH 552 0
DWIDTH 8 0
BBX 6 10 1 0
BITMAP
78
88
04
04
08
10
10
20
40
FC
ENDCHAR
STARTCHAR 0033
ENCODING 51
SWIDTH 552 0
DWIDTH 8 0
BBX 6 10 1 0
BITMAP
F8
04
04
08
78
04
04
04
04
F8
ENDCHAR
STARTCHAR 0034
ENCODING 52
SWIDTH 552 0
DWIDTH 8 0
BBX 8 10 0 0
BITMAP
04
0C
14
24
24
44
FF
04
04
04
ENDCHAR
STARTCHAR 0035
ENCODING 53
SWIDTH 552 0
DWIDTH 8 0
BBX 6 10 1 0
BITMAP
78
80
80
80
F8
04
04
04
04
F8
ENDCHAR
STARTCHAR 0036
ENCODING 54
SWIDTH 552 0
DWIDTH 8 0
BBX 6 10 1 0
BITMAP
38
40
80
80
F8
84
84
84
84
78
ENDCHAR
STARTCHAR 0037
ENCODING 55
SWIDTH 552 0
DWIDTH 8 0
BBX 6 10 1 0
BITMAP
FC
04
08
08
08
10
10
20
20
40
ENDCHAR
STARTCHAR 0038
ENCODING 56
SWIDTH 552 0
DWIDTH 8 0
BBX 6 10 1 0
BITMAP
78
84
84
48
70
8C
84
84
84
78
ENDCHAR
STARTCHAR 0039
ENCODING 57
SWIDTH 552 0
DWIDTH 8 0
BBX 6 10 1 0
BITMAP
78
84
84
84
84
7C
04
04
08
F0
ENDCHAR
STARTCHAR 003A
ENCODING 58
SWIDTH 207 0
DWIDTH 3 0
BBX 1 8 1 0
BITMAP
80
00
00
00
00
00
00
80
ENDCHAR
STARTCHAR 003B
ENCODING 59
SWIDTH 207 0
DWIDTH 3 0
BBX 1 9 1 -2
BITMAP
80
00
00
00
00
00
80
80
80
ENDCHAR
STARTCHAR 003C
ENCODING 60
SWIDTH 552 0
DWIDTH 8 0
BBX 6 7 1 2
BITMAP
04
18
60
80
60
18
04
ENDCHAR
STARTCHAR 003D
ENCODING 61
SWIDTH 552 0
DWIDTH 8 0
BBX 6 3 1 4
BITMAP
FC
00
FC
ENDCHAR
STARTCHAR 003E
ENCODING 62
SWIDTH 552 0
DWIDTH 8 0
BBX 6 7 1 2
BITMAP
80
60
18
04
18
60
80
ENDCHAR
STARTCHAR 003F
ENCODING 63
SWIDTH 414 0
DWIDTH 6 0
BBX 4 10 1 0
BITMAP
F0
10
10
10
20
40
40
00
00
40
ENDCHAR
STARTCHAR 0040
ENCODING 64
SWIDTH 828 0
DWIDTH 12 0
BBX 10 11 1 -1
BITMAP
1F00
6080
4040
8E40
9240
A240
A240
9D80
8000
4000
3E00
ENDCHAR
STARTCHAR 0041
ENCODING 65
SWIDTH 552 0
DWIDTH 8 0
BBX 8 10 0 0
BITMAP
08
18
18
24
24
24
7E
42
81
81
ENDCHAR
STARTCHAR 0042
ENCODING 66
SWIDTH 621 0
DWIDTH 9 0
BBX 7 10 1 0
BITMAP
FC
82
82
82
FC
82
82
82
82
FC
ENDCHAR
STARTCHAR 0043
ENCODING 67
SWIDTH 621 0
DWIDTH 9 0
BBX 7 10 1 0
BITMAP
3E
40
80
80
80
80
80
80
40
3E
ENDCHAR
STARTCHAR 0044
ENCODING 68
SWIDTH 690 0
DWIDTH 10 0
BBX 8 10 1 0
BITMAP
FC
82
81
81
81
81
81
81
82
FC
ENDCHAR
STARTCHAR 0045
ENCODING 69
SWIDTH 552 0
DWIDTH 8 0
BBX 6 10 1 0
BITMAP
FC
80
80
80
FC
80
80
80
80
FC
ENDCHAR
STARTCHAR 0046
ENCODING 70
SWIDTH 483 0
DWIDTH 7 0
BBX 6 10 1 0
BITMAP
FC
80
80
80
FC
80
80
80
80
80
ENDCHAR
STARTCHAR 0047
ENCODING 71
SWIDTH 690 0
DWIDTH 10 0
BBX 8 10 1 0
BITMAP
3F
40
80
80
80
8F
81
81
41
3F
ENDCHAR
STARTCHAR 0048
ENCODING 72
SWIDTH 690 0
DWIDTH 10 0
BBX 8 10 1 0
BITMAP
81
81
81
81
FF
81
81
81
81
81
ENDCHAR
STARTCHAR 0049
ENCODING 73
SWIDTH 276 0
DWIDTH 4 0
BBX 1 10 1 0
BITMAP
80
80
80
80
80
80
80
80
80
80
ENDCHAR
STARTCHAR 004A
ENCODING 74
SWIDTH 207 0
DWIDTH 3 0
BBX 3 13 -1 -3
BITMAP
20
20
20
20
20
20
20
20
20
20
20
20
C0
ENDCHAR
STARTCHAR 004B
ENCODING 75
SWIDTH 552 0
DWIDTH 8 0
BBX 7 10 1 0
BITMAP
84
84
88
90
A0
D0
88
88
84
82
ENDCHAR
STARTCHAR 004C
ENCODING 76
SWIDTH 483 0
DWIDTH 7 0
BBX 6 10 1 0
BITMAP
80
80
80
80
80
80
80
80
80
FC
ENDCHAR
STARTCHAR 004D
ENCODING 77
SWIDTH 828 0
DWIDTH 12 0
BBX 10 10 1 0
BITMAP
C0C0
C0C0
A140
A140
A140
9240
9240
8C40
8C40
8840
ENDCHAR
STARTCHAR 004E
ENCODING 78
SWIDTH 690 0
DWIDTH 10 0
BBX 8 10 1 0
BITMAP
81
C1
A1
91
91
89
89
85
83
81
ENDCHAR
STARTCHAR 004F
ENCODING 79
SWIDTH 759 0
DWIDTH 11 0
BBX 9 10 1 0
BITMAP
3E00
4100
8080
8080
8080
8080
8080
8080
4100
3E00
ENDCHAR
STARTCHAR 0050
ENCODING 80
SWIDTH 552 0
DWIDTH 8 0
BBX 6 10 1 0
BITMAP
F8
84
84
84
8C
F0
80
80
80
80
ENDCHAR
STARTCHAR 0051
ENCODING 81
SWIDTH 759 0
DWIDTH 11 0
BBX 9 12 1 -2
BITMAP
3E00
4100
8080
8080
8080
8080
8080
8080
4100
3E00
0400
0300
ENDCHAR
STARTCHAR 0052
ENCODING 82
SWIDTH 552 0
DWIDTH 8 0
BBX 7 10 1 0
BITMAP
F8
84
84
84
8C
F0
88
88
84
82
ENDCHAR
STARTCHAR 0053
ENCODING 83
SWIDTH 552 0
DWIDTH 8 0
BBX 6 10 1 0
BITMAP
7C
80
80
80
60
18
04
04
04
F8
ENDCHAR
STARTCHAR 0054
ENCODING 84
SWIDTH 483 0
DWIDTH 7 0
BBX 7 10 0 0
BITMAP
FE
10
10
10
10
10
10
10
10
10
ENDCHAR
STARTCHAR 0055
ENCODING 85
SWIDTH 690 0
DWIDTH 10 0
BBX 8 10 1 0
BITMAP
81
81
81
81
81
81
81
81
42
3C
ENDCHAR
STARTCHAR 0056
ENCODING 86
SWIDTH 552 0
DWIDTH 8 0
BBX 8 10 0 0
BITMAP
81
81
42
42
24
24
24
18
18
08
ENDCHAR
STARTCHAR 0057
ENCODING 87
SWIDTH 828 0
DWIDTH 12 0
BBX 12 10 0 0
BITMAP
8410
4620
4620
4A20
4920
2940
2940
30C0
1080
1080
ENDCHAR
STARTCHAR 0058
ENCODING 88
SWIDTH 552 0
DWIDTH 8 0
BBX 8 10 0 0
BITMAP
41
42
24
18
18
18
24
24
42
81
ENDCHAR
STARTCHAR 0059
ENCODING 89
SWIDTH 483 0
DWIDTH 7 0
BBX 7 10 0 0
BITMAP
82
44
44
28
28
10
10
10
10
10
ENDCHAR
STARTCHAR 005A
ENCODING 90
SWIDTH 552 0
DWIDTH 8 0
BBX 6 10 1 0
BITMAP
FC
04
08
10
10
20
40
40
80
FC
ENDCHAR
STARTCHAR 005B
ENCODING 91
SWIDTH 276 0
DWIDTH 4 0
BBX 3 12 1 -2
BITMAP
E0
80
80
80
80
80
80
80
80
80
80
E0
ENDCHAR
STARTCHAR 005C
ENCODING 92
SWIDTH 345 0
DWIDTH 5 0
BBX 5 10 0 0
BITMAP
80
40
40
40
20
20
10
10
10
08
ENDCHAR
STARTCHAR 005D
ENCODING 93
SWIDTH 276 0
DWIDTH 4 0
BBX 3 12 0 -2
BITMAP
E0
20
20
20
20
20
20
20
20
20
20
E0
ENDCHAR
STARTCHAR 005E
ENCODING 94
SWIDTH 552 0
DWIDTH 8 0
BBX 6 6 1 4
BITMAP
10
30
48
48
84
84
ENDCHAR
STARTCHAR 005F
ENCODING 95
SWIDTH 414 0
DWIDTH 6 0
BBX 6 1 0 -2
BITMAP
FC
ENDCHAR
STARTCHAR 0060
ENCODING 96
SWIDTH 552 0
DWIDTH 8 0
BBX 2 2 3 8
BITMAP
80
40
ENDCHAR
STARTCHAR 0061
ENCODING 97
SWIDTH 483 0
DWIDTH 7 0
BBX 5 8 1 0
BITMAP
F0
08
08
78
88
88
88
F8
ENDCHAR
STARTCHAR 0062
ENCODING 98
SWIDTH 552 0
DWIDTH 8 0
BBX 6 11 1 0
BITMAP
80
80
80
F8
84
84
84
84
84
84
F8
ENDCHAR
STARTCHAR 0063
ENCODING 99
SWIDTH 483 0
DWIDTH 7 0
BBX 5 8 1 0
BITMAP
78
80
80
80
80
80
80
78
ENDCHAR
STARTCHAR 0064
ENCODING 100
SWIDTH 552 0
DWIDTH 8 0
BBX 6 11 1 0
BITMAP
04
04
04
7C
84
84
84
84
84
84
7C
ENDCHAR
STARTCHAR 0065
ENCODING 101
SWIDTH 552 0
DWIDTH 8 0
BBX 6 8 1 0
BITMAP
78
84
84
FC
80
80
80
7C
ENDCHAR
STARTCHAR 0066
ENCODING 102
SWIDTH 276 0
DWIDTH 4 0
BBX 5 11 0 0
BITMAP
38
40
40
F0
40
40
40
40
40
40
40
ENDCHAR
STARTCHAR 0067
ENCODING 103
SWIDTH 483 0
DWIDTH 7 0
BBX 7 11 0 -3
BITMAP
3C
44
44
44
38
40
40
7C
82
82
7C
ENDCHAR
STARTCHAR 0068
ENCODING 104
SWIDTH 552 0
DWIDTH 8 0
BBX 6 11 1 0
BITMAP
80
80
80
F8
84
84
84
84
84
84
84
ENDCHAR
STARTCHAR 0069
ENCODING 105
SWIDTH 207 0
DWIDTH 3 0
BBX 1 10 1 0
BITMAP
80
00
80
80
80
80
80
80
80
80
ENDCHAR
STARTCHAR 006A
ENCODING 106
SWIDTH 207 0
DWIDTH 3 0
BBX 3 13 -1 -3
BITMAP
20
00
20
20
20
20
20
20
20
20
20
20
C0
ENDCHAR
STARTCHAR 006B
ENCODING 107
SWIDTH 483 0
DWIDTH 7 0
BBX 6 11 1 0
BITMAP
80
80
80
88
88
90
A0
D0
90
88
84
ENDCHAR
STARTCHAR 006C
ENCODING 108
SWIDTH 207 0
DWIDTH 3 0
BBX 1 11 1 0
BITMAP
80
80
80
80
80
80
80
80
80
80
80
ENDCHAR
STARTCHAR 006D
ENCODING 109
SWIDTH 828 0
DWIDTH 12 0
BBX 10 8 1 0
BITMAP
FB80
8440
8440
8440
8440
8440
8440
8440
ENDCHAR
STARTCHAR 006E
ENCODING 110
SWIDTH 552 0
DWIDTH 8 0
BBX 6 8 1 0
BITMAP
F8
84
84
84
84
84
84
84
ENDCHAR
STARTCHAR 006F
ENCODING 111
SWIDTH 552 0
DWIDTH 8 0
BBX 6 8 1 0
BITMAP
78
84
84
84
84
84
84
78
ENDCHAR
STARTCHAR 0070
ENCODING 112
SWIDTH 552 0
DWIDTH 8 0
BBX 6 11 1 -3
BITMAP
F8
84
84
84
84
84
84
F8
80
80
80
ENDCHAR
STARTCHAR 0071
ENCODING 113
SWIDTH 552 0
DWIDTH 8 0
BBX 6 11 1 -3
BITMAP
7C
84
84
84
84
84
84
7C
04
04
04
ENDCHAR
STARTCHAR 0072
ENCODING 114
SWIDTH 345 0
DWIDTH 5 0
BBX 4 8 1 0
BITMAP
F0
80
80
80
80
80
80
80
ENDCHAR
STARTCHAR 0073
ENCODING 115
SWIDTH 483 0
DWIDTH 7 0
BBX 5 8 1 0
BITMAP
78
80
80
60
18
08
08
F0
ENDCHAR
STARTCHAR 0074
ENCODING 116
SWIDTH 345 0
DWIDTH 5 0
BBX 5 9 0 1
BITMAP
40
F0
40
40
40
40
40
40
38
ENDCHAR
STARTCHAR 0075
ENCODING 117
SWIDTH 552 0
DWIDTH 8 0
BBX 6 8 1 0
BITMAP
84
84
84
84
84
84
84
7C
ENDCHAR
STARTCHAR 0076
ENCODING 118
SWIDTH 414 0
DWIDTH 6 0
BBX 6 8 0 0
BITMAP
84
84
48
48
48
30
30
10
ENDCHAR
STARTCHAR 0077
ENCODING 119
SWIDTH 690 0
DWIDTH 10 0
BBX 10 8 0 0
BITMAP
8440
8C40
4C80
4A80
5280
5280
2300
2100
ENDCHAR
STARTCHAR 0078
ENCODING 120
SWIDTH 483 0
DWIDTH 7 0
BBX 5 8 1 0
BITMAP
88
88
50
20
20
50
88
88
ENDCHAR
STARTCHAR 0079
ENCODING 121
SWIDTH 414 0
DWIDTH 6 0
BBX 6 11 0 -3
BITMAP
84
84
48
48
48
30
30
20
20
20
C0
ENDCHAR
STARTCHAR 007A
ENCODING 122
SWIDTH 414 0
DWIDTH 6 0
BBX 4 8 1 0
BITMAP
F0
10
20
20
40
40
80
F0
ENDCHAR
STARTCHAR 007B
ENCODING 123
SWIDTH 345 0
DWIDTH 5 0
BBX 5 12 0 -2
BITMAP
18
20
20
20
20
20
C0
20
20
20
20
18
ENDCHAR
STARTCHAR 007C
ENCODING 124
SWIDTH 552 0
DWIDTH 8 0
BBX 1 14 3 -3
BITMAP
80
80
80
80
80
80
80
80
80
80
80
80
80
80
ENDCHAR
STARTCHAR 007D
ENCODING 125
SWIDTH 345 0
DWIDTH 5 0
BBX 4 12 1 -2
BITMAP
80
40
40
40
40
40
30
40
40
40
40
80
ENDCHAR
STARTCHAR 007E
ENCODING 126
SWIDTH 552 0
DWIDTH 8 0
BBX 6 2 1 4
BITMAP
E0
1C
ENDCHAR
STARTCHAR 00A0
ENCODING 160
SWIDTH 276 0
DWIDTH 4 0
BBX 0 0 0 0
BITMAP
ENDCHAR
STARTCHAR 00A1
ENCODING 161
SWIDTH 207 0
DWIDTH 3 0
BBX 1 11 1 -3
BITMAP
80
00
00
80
80
80
80
80
80
80
80
ENDCHAR
STARTCHAR 00A2
ENCODING 162
SWIDTH 552 0
DWIDTH 8 0
BBX 6 10 1 0
BITMAP
10
3C
40
80
80
80
80
40
3C
10
ENDCHAR
STARTCHAR 00A3
ENCODING 163
SWIDTH 552 0
DWIDTH 8 0
BBX 6 10 1 0
BITMAP
3C
40
40
40
40
F8
40
40
40
FC
ENDCHAR
STARTCHAR 00A4
ENCODING 164
SWIDTH 552 0
DWIDTH 8 0
BBX 6 8 1 1
BITMAP
84
FC
84
84
84
84
FC
84
ENDCHAR
STARTCHAR 00A5
ENCODING 165
SWIDTH 552 0
DWIDTH 8 0
BBX 8 10 0 0
BITMAP
81
42
24
24
18
7E
10
7E
10
10
ENDCHAR
STARTCHAR 00A6
ENCODING 166
SWIDTH 552 0
DWIDTH 8 0
BBX 1 14 3 -3
BITMAP
80
80
80
80
80
00
00
00
00
80
80
80
80
80
ENDCHAR
STARTCHAR 00A7
ENCODING 167
SWIDTH 483 0
DWIDTH 7 0
BBX 5 11 1 0
BITMAP
78
80
80
60
98
88
C8
30
08
08
F0
ENDCHAR
STARTCHAR 00A8
ENCODING 168
SWIDTH 552 0
DWIDTH 8 0
BBX 4 1 2 9
BITMAP
90
ENDCHAR
STARTCHAR 00A9
ENCODING 169
SWIDTH 828 0
DWIDTH 12 0
BBX 10 10 1 0
BITMAP
3F00
4080
8E40
9040
A040
A040
9040
9E40
4080
3F00
ENDCHAR
STARTCHAR 00AA
ENCODING 170
SWIDTH 345 0
DWIDTH 5 0
BBX 3 5 1 5
BITMAP
E0
20
E0
A0
E0
ENDCHAR
STARTCHAR 00AB
ENCODING 171
SWIDTH 414 0
DWIDTH 6 0
BBX 5 6 1 1
BITMAP
48
90
A0
A0
90
48
ENDCHAR
STARTCHAR 00AC
ENCODING 172
SWIDTH 552 0
DWIDTH 8 0
BBX 6 3 1 3
BITMAP
FC
04
04
ENDCHAR
STARTCHAR 00AD
ENCODING 173
SWIDTH 345 0
DWIDTH 5 0
BBX 3 1 1 3
BITMAP
E0
ENDCHAR
STARTCHAR 00AE
ENCODING 174
SWIDTH 828 0
DWIDTH 12 0
BBX 10 10 1 0
BITMAP
3F00
4080
9C40
9240
9240
9C40
9240
9240
4080
3F00
ENDCHAR
STARTCHAR 00AF
ENCODING 175
SWIDTH 483 0
DWIDTH 7 0
BBX 7 1 0 10
BITMAP
FE
ENDCHAR
STARTCHAR 00B0
ENCODING 176
SWIDTH 414 0
DWIDTH 6 0
BBX 4 4 1 6
BITMAP
60
90
90
60
ENDCHAR
STARTCHAR 00B1
ENCODING 177
SWIDTH 552 0
DWIDTH 8 0
BBX 6 8 1 1
BITMAP
20
20
FC
20
20
00
00
FC
ENDCHAR
STARTCHAR 00B2
ENCODING 178
SWIDTH 345 0
DWIDTH 5 0
BBX 5 6 0 4
BITMAP
70
08
10
20
40
F8
ENDCHAR
STARTCHAR 00B3
ENCODING 179
SWIDTH 345 0
DWIDTH 5 0
BBX 5 6 0 4
BITMAP
70
08
70
08
08
F0
ENDCHAR
STARTCHAR 00B4
ENCODING 180
SWIDTH 552 0
DWIDTH 8 0
BBX 2 2 3 8
BITMAP
40
80
ENDCHAR
STARTCHAR 00B5
ENCODING 181
SWIDTH 552 0
DWIDTH 8 0
BBX 6 11 1 -3
BITMAP
84
84
84
84
84
84
84
FC
80
80
80
ENDCHAR
STARTCHAR 00B6
ENCODING 182
SWIDTH 621 0
DWIDTH 9 0
BBX 6 13 1 -2
BITMAP
7C
F4
F4
F4
F4
F4
74
14
14
14
14
14
14
ENDCHAR
STARTCHAR 00B7
ENCODING 183
SWIDTH 207 0
DWIDTH 3 0
BBX 1 1 1 4
BITMAP
80
ENDCHAR
STARTCHAR 00B8
ENCODING 184
SWIDTH 207 0
DWIDTH 3 0
BBX 3 3 0 -3
BITMAP
40
60
E0
ENDCHAR
STARTCHAR 00B9
ENCODING 185
SWIDTH 345 0
DWIDTH 5 0
BBX 2 6 1 4
BITMAP
C0
40
40
40
40
40
ENDCHAR
STARTCHAR 00BA
ENCODING 186
SWIDTH 345 0
DWIDTH 5 0
BBX 5 5 0 5
BITMAP
70
88
88
88
70
ENDCHAR
STARTCHAR 00BB
ENCODING 187
SWIDTH 414 0
DWIDTH 6 0
BBX 5 6 0 1
BITMAP
90
48
28
28
48
90
ENDCHAR
STARTCHAR 00BC
ENCODING 188
SWIDTH 690 0
DWIDTH 10 0
BBX 9 10 1 0
BITMAP
C200
4200
4400
4800
4900
5300
1500
2900
4F80
4100
ENDCHAR
STARTCHAR 00BD
ENCODING 189
SWIDTH 690 0
DWIDTH 10 0
BBX 9 10 1 0
BITMAP
C400
4400
4800
5000
5700
6080
2100
4200
8400
8F80
ENDCHAR
STARTCHAR 00BE
ENCODING 190
SWIDTH 690 0
DWIDTH 10 0
BBX 11 10 0 0
BITMAP
7080
0880
7100
0A00
0A40
F4C0
0540
0A40
13E0
1040
ENDCHAR
STARTCHAR 00BF
ENCODING 191
SWIDTH 414 0
DWIDTH 6 0
BBX 4 11 1 -3
BITMAP
20
00
00
20
20
40
80
80
80
80
F0
ENDCHAR
STARTCHAR 00C0
ENCODING 192
SWIDTH 552 0
DWIDTH 8 0
BBX 8 13 0 0
BITMAP
10
08
00
08
18
18
24
24
24
7E
42
81
81
ENDCHAR
STARTCHAR 00C1
ENCODING 193
SWIDTH 552 0
DWIDTH 8 0
BBX 8 13 0 0
BITMAP
04
08
00
08
18
18
24
24
24
7E
42
81
81
ENDCHAR
STARTCHAR 00C2
ENCODING 194
SWIDTH 552 0
DWIDTH 8 0
BBX 8 13 0 0
BITMAP
18
24
00
08
18
18
24
24
24
7E
42
81
81
ENDCHAR
STARTCHAR 00C3
ENCODING 195
SWIDTH 552 0
DWIDTH 8 0
BBX 8 13 0 0
BITMAP
32
2C
00
08
18
18
24
24
24
7E
42
81
81
ENDCHAR
STARTCHAR 00C4
ENCODING 196
SWIDTH 552 0
DWIDTH 8 0
BBX 8 12 0 0
BITMAP
24
00
08
18
18
24
24
24
7E
42
81
81
ENDCHAR
STARTCHAR 00C5
ENCODING 197
SWIDTH 552 0
DWIDTH 8 0
BBX 8 13 0 0
BITMAP
18
24
24
18
18
18
24
24
24
7E
42
81
81
ENDCHAR
STARTCHAR 00C6
ENCODING 198
SWIDTH 759 0
DWIDTH 11 0
BBX 10 10 0 0
BITMAP
0FC0
0C00
1400
1400
27C0
2400
7C00
4400
4400
87C0
ENDCHAR
STARTCHAR 00C7
ENCODING 199
SWIDTH 621 0
DWIDTH 9 0
BBX 7 13 1 -3
BITMAP
3E
40
80
80
80
80
80
80
40
3E
08
0C
1C
ENDCHAR
STARTCHAR 00C8
ENCODING 200
SWIDTH 552 0
DWIDTH 8 0
BBX 6 13 1 0
BITMAP
40
20
00
FC
80
80
80
FC
80
80
80
80
FC
ENDCHAR
STARTCHAR 00C9
ENCODING 201
SWIDTH 552 0
DWIDTH 8 0
BBX 6 13 1 0
BITMAP
10
20
00
FC
80
80
80
FC
80
80
80
80
FC
ENDCHAR
STARTCHAR 00CA
ENCODING 202
SWIDTH 552 0
DWIDTH 8 0
BBX 6 13 1 0
BITMAP
30
48
00
FC
80
80
80
FC
80
80
80
80
FC
ENDCHAR
STARTCHAR 00CB
ENCODING 203
SWIDTH 552 0
DWIDTH 8 0
BBX 6 12 1 0
BITMAP
48
00
FC
80
80
80
FC
80
80
80
80
FC
ENDCHAR
STARTCHAR 00CC
ENCODING 204
SWIDTH 276 0
DWIDTH 4 0
BBX 2 13 0 0
BITMAP
80
40
00
40
40
40
40
40
40
40
40
40
40
ENDCHAR
STARTCHAR 00CD
ENCODING 205
SWIDTH 276 0
DWIDTH 4 0
BBX 2 13 2 0
BITMAP
40
80
00
80
80
80
80
80
80
80
80
80
80
ENDCHAR
STARTCHAR 00CE
ENCODING 206
SWIDTH 276 0
DWIDTH 4 0
BBX 4 13 0 0
BITMAP
60
90
00
40
40
40
40
40
40
40
40
40
40
ENDCHAR
STARTCHAR 00CF
ENCODING 207
SWIDTH 276 0
DWIDTH 4 0
BBX 4 12 0 0
BITMAP
90
00
40
40
40
40
40
40
40
40
40
40
ENDCHAR
STARTCHAR 00D0
ENCODING 208
SWIDTH 690 0
DWIDTH 10 0
BBX 9 10 0 0
BITMAP
7E00
4100
4080
4080
F880
4080
4080
4080
4100
7E00
ENDCHAR
STARTCHAR 00D1
ENCODING 209
SWIDTH 690 0
DWIDTH 10 0
BBX 8 13 1 0
BITMAP
32
2C
00
81
C1
A1
91
91
89
89
85
83
81
ENDCHAR
STARTCHAR 00D2
ENCODING 210
SWIDTH 759 0
DWIDTH 11 0
BBX 9 13 1 0
BITMAP
1000
0800
0000
3E00
4100
8080
8080
8080
8080
8080
8080
4100
3E00
ENDCHAR
STARTCHAR 00D3
ENCODING 211
SWIDTH 759 0
DWIDTH 11 0
BBX 9 13 1 0
BITMAP
0400
0800
0000
3E00
4100
8080
8080
8080
8080
8080
8080
4100
3E00
ENDCHAR
STARTCHAR 00D4
ENCODING 212
SWIDTH 759 0
DWIDTH 11 0
BBX 9 13 1 0
BITMAP
1800
2400
0000
3E00
4100
8080
8080
8080
8080
8080
8080
4100
3E00
ENDCHAR
STARTCHAR 00D5
ENCODING 213
SWIDTH 759 0
DWIDTH 11 0
BBX 9 13 1 0
BITMAP
3200
2C00
0000
3E00
4100
8080
8080
8080
8080
8080
8080
4100
3E00
ENDCHAR
STARTCHAR 00D6
ENCODING 214
SWIDTH 759 0
DWIDTH 11 0
BBX 9 12 1 0
BITMAP
2400
0000
3E00
4100
8080
8080
8080
8080
8080
8080
4100
3E00
ENDCHAR
STARTCHAR 00D7
ENCODING 215
SWIDTH 552 0
DWIDTH 8 0
BBX 6 6 1 3
BITMAP
84
48
30
50
88
04
ENDCHAR
STARTCHAR 00D8
ENCODING 216
SWIDTH 759 0
DWIDTH 11 0
BBX 9 10 1 0
BITMAP
3F00
4100
8280
8480
8880
8880
9080
A080
4100
7E00
ENDCHAR
STARTCHAR 00D9
ENCODING 217
SWIDTH 690 0
DWIDTH 10 0
BBX 8 13 1 0
BITMAP
20
10
00
81
81
81
81
81
81
81
81
42
3C
ENDCHAR
STARTCHAR 00DA
ENCODING 218
SWIDTH 690 0
DWIDTH 10 0
BBX 8 13 1 0
BITMAP
04
08
00
81
81
81
81
81
81
81
81
42
3C
ENDCHAR
STARTCHAR 00DB
ENCODING 219
SWIDTH 690 0
DWIDTH 10 0
BBX 8 13 1 0
BITMAP
18
24
00
81
81
81
81
81
81
81
81
42
3C
ENDCHAR
STARTCHAR 00DC
ENCODING 220
SWIDTH 690 0
DWIDTH 10 0
BBX 8 12 1 0
BITMAP
24
00
81
81
81
81
81
81
81
81
42
3C
ENDCHAR
STARTCHAR 00DD
ENCODING 221
SWIDTH 483 0
DWIDTH 7 0
BBX 7 13 0 0
BITMAP
08
10
00
82
44
44
28
28
10
10
10
10
10
ENDCHAR
STARTCHAR 00DE
ENCODING 222
SWIDTH 552 0
DWIDTH 8 0
BBX 6 10 1 0
BITMAP
80
80
F8
84
84
84
8C
F0
80
80
ENDCHAR
STARTCHAR 00DF
ENCODING 223
SWIDTH 552 0
DWIDTH 8 0
BBX 6 11 1 0
BITMAP
78
84
88
88
90
90
88
84
84
84
BC
ENDCHAR
STARTCHAR 00E0
ENCODING 224
SWIDTH 483 0
DWIDTH 7 0
BBX 5 11 1 0
BITMAP
40
20
00
F0
08
08
78
88
88
88
F8
ENDCHAR
STARTCHAR 00E1
ENCODING 225
SWIDTH 483 0
DWIDTH 7 0
BBX 5 11 1 0
BITMAP
10
20
00
F0
08
08
78
88
88
88
F8
ENDCHAR
STARTCHAR 00E2
ENCODING 226
SWIDTH 483 0
DWIDTH 7 0
BBX 5 11 1 0
BITMAP
30
48
00
F0
08
08
78
88
88
88
F8
ENDCHAR
STARTCHAR 00E3
ENCODING 227
SWIDTH 483 0
DWIDTH 7 0
BBX 5 11 1 0
BITMAP
C8
B0
00
F0
08
08
78
88
88
88
F8
ENDCHAR
STARTCHAR 00E4
ENCODING 228
SWIDTH 483 0
DWIDTH 7 0
BBX 5 10 1 0
BITMAP
48
00
F0
08
08
78
88
88
88
F8
ENDCHAR
STARTCHAR 00E5
ENCODING 229
SWIDTH 483 0
DWIDTH 7 0
BBX 5 12 1 0
BITMAP
30
48
30
00
F0
08
08
78
88
88
88
F8
ENDCHAR
STARTCHAR 00E6
ENCODING 230
SWIDTH 828 0
DWIDTH 12 0
BBX 10 8 1 0
BITMAP
7380
0C40
0840
7FC0
8800
8800
8C00
F3C0
ENDCHAR
STARTCHAR 00E7
ENCODING 231
SWIDTH 483 0
DWIDTH 7 0
BBX 5 11 1 -3
BITMAP
78
80
80
80
80
80
80
78
20
30
70
ENDCHAR
STARTCHAR 00E8
ENCODING 232
SWIDTH 552 0
DWIDTH 8 0
BBX 6 11 1 0
BITMAP
40
20
00
78
84
84
FC
80
80
80
7C
ENDCHAR
STARTCHAR 00E9
ENCODING 233
SWIDTH 552 0
DWIDTH 8 0
BBX 6 11 1 0
BITMAP
10
20
00
78
84
84
FC
80
80
80
7C
ENDCHAR
STARTCHAR 00EA
ENCODING 234
SWIDTH 552 0
DWIDTH 8 0
BBX 6 11 1 0
BITMAP
30
48
00
78
84
84
FC
80
80
80
7C
ENDCHAR
STARTCHAR 00EB
ENCODING 235
SWIDTH 552 0
DWIDTH 8 0
BBX 6 10 1 0
BITMAP
48
00
78
84
84
FC
80
80
80
7C
ENDCHAR
STARTCHAR 00EC
ENCODING 236
SWIDTH 207 0
DWIDTH 3 0
BBX 2 11 0 0
BITMAP
80
40
00
40
40
40
40
40
40
40
40
ENDCHAR
STARTCHAR 00ED
ENCODING 237
SWIDTH 207 0
DWIDTH 3 0
BBX 2 11 1 0
BITMAP
40
80
00
80
80
80
80
80
80
80
80
ENDCHAR
STARTCHAR 00EE
ENCODING 238
SWIDTH 207 0
DWIDTH 3 0
BBX 4 11 0 0
BITMAP
60
90
00
40
40
40
40
40
40
40
40
ENDCHAR
STARTCHAR 00EF
ENCODING 239
SWIDTH 207 0
DWIDTH 3 0
BBX 4 10 0 0
BITMAP
90
00
40
40
40
40
40
40
40
40
ENDCHAR
STARTCHAR 00F0
ENCODING 240
SWIDTH 552 0
DWIDTH 8 0
BBX 6 11 1 0
BITMAP
28
10
68
04
7C
84
84
84
84
84
78
ENDCHAR
STARTCHAR 00F1
ENCODING 241
SWIDTH 552 0
DWIDTH 8 0
BBX 6 11 1 0
BITMAP
64
58
00
F8
84
84
84
84
84
84
84
ENDCHAR
STARTCHAR 00F2
ENCODING 242
SWIDTH 552 0
DWIDTH 8 0
BBX 6 11 1 0
BITMAP
20
10
00
78
84
84
84
84
84
84
78
ENDCHAR
STARTCHAR 00F3
ENCODING 243
SWIDTH 552 0
DWIDTH 8 0
BBX 6 11 1 0
BITMAP
08
10
00
78
84
84
84
84
84
84
78
ENDCHAR
STARTCHAR 00F4
ENCODING 244
SWIDTH 552 0
DWIDTH 8 0
BBX 6 11 1 0
BITMAP
30
48
00
78
84
84
84
84
84
84
78
ENDCHAR
STARTCHAR 00F5
ENCODING 245
SWIDTH 552 0
DWIDTH 8 0
BBX 6 11 1 0
BITMAP
64
58
00
78
84
84
84
84
84
84
78
ENDCHAR
STARTCHAR 00F6
ENCODING 246
SWIDTH 552 0
DWIDTH 8 0
BBX 6 10 1 0
BITMAP
48
00
78
84
84
84
84
84
84
78
ENDCHAR
STARTCHAR 00F7
ENCODING 247
SWIDTH 552 0
DWIDTH 8 0
BBX 6 7 1 2
BITMAP
30
00
00
FC
00
00
30
ENDCHAR
STARTCHAR 00F8
ENCODING 248
SWIDTH 552 0
DWIDTH 8 0
BBX 6 8 1 0
BITMAP
7C
8C
8C
94
A4
C4
C4
F8
ENDCHAR
STARTCHAR 00F9
ENCODING 249
SWIDTH 552 0
DWIDTH 8 0
BBX 6 11 1 0
BITMAP
40
20
00
84
84
84
84
84
84
84
7C
ENDCHAR
STARTCHAR 00FA
ENCODING 250
SWIDTH 552 0
DWIDTH 8 0
BBX 6 11 1 0
BITMAP
08
10
00
84
84
84
84
84
84
84
7C
ENDCHAR
STARTCHAR 00FB
ENCODING 251
SWIDTH 552 0
DWIDTH 8 0
BBX 6 11 1 0
BITMAP
30
48
00
84
84
84
84
84
84
84
7C
ENDCHAR
STARTCHAR 00FC
ENCODING 252
SWIDTH 552 0
DWIDTH 8 0
BBX 6 10 1 0
BITMAP
48
00
84
84
84
84
84
84
84
7C
ENDCHAR
STARTCHAR 00FD
ENCODING 253
SWIDTH 414 0
DWIDTH 6 0
BBX 6 14 0 -3
BITMAP
08
10
00
84
84
48
48
48
30
30
20
20
20
C0
ENDCHAR
STARTCHAR 00FE
ENCODING 254
SWIDTH 552 0
DWIDTH 8 0
BBX 6 14 1 -3
BITMAP
80
80
80
F8
84
84
84
84
84
84
F8
80
80
80
ENDCHAR
STARTCHAR 00FF
ENCODING 255
SWIDTH 414 0
DWIDTH 6 0
BBX 6 13 0 -3
BITMAP
48
00
84
84
48
48
48
30
30
20
20
20
C0
ENDCHAR
STARTCHAR 0100
ENCODING 256
SWIDTH 552 0
DWIDTH 8 0
BBX 8 12 0 0
BITMAP
3C
00
08
18
18
24
24
24
7E
42
81
81
ENDCHAR
STARTCHAR 0101
ENCODING 257
SWIDTH 483 0
DWIDTH 7 0
BBX 5 10 1 0
BITMAP
78
00
F0
08
08
78
88
88
88
F8
ENDCHAR
STARTCHAR 0102
ENCODING 258
SWIDTH 552 0
DWIDTH 8 0
BBX 8 13 0 0
BITMAP
24
18
00
08
18
18
24
24
24
7E
42
81
81
ENDCHAR
STARTCHAR 0103
ENCODING 259
SWIDTH 483 0
DWIDTH 7 0
BBX 5 11 1 0
BITMAP
48
30
00
F0
08
08
78
88
88
88
F8
ENDCHAR
STARTCHAR 0104
ENCODING 260
SWIDTH 552 0
DWIDTH 8 0
BBX 8 13 0 -3
BITMAP
08
18
18
24
24
24
7E
42
81
81
01
02
01
ENDCHAR
STARTCHAR 0105
ENCODING 261
SWIDTH 483 0
DWIDTH 7 0
BBX 5 11 1 -3
BITMAP
F0
08
08
78
88
88
88
F8
08
10
08
ENDCHAR
STARTCHAR 0106
ENCODING 262
SWIDTH 621 0
DWIDTH 9 0
BBX 7 13 1 0
BITMAP
04
08
00
3E
40
80
80
80
80
80
80
40
3E
ENDCHAR
STARTCHAR 0107
ENCODING 263
SWIDTH 483 0
DWIDTH 7 0
BBX 5 11 1 0
BITMAP
10
20
00
78
80
80
80
80
80
80
78
ENDCHAR
STARTCHAR 0108
ENCODING 264
SWIDTH 621 0
DWIDTH 9 0
BBX 7 13 1 0
BITMAP
18
24
00
3E
40
80
80
80
80
80
80
40
3E
ENDCHAR
STARTCHAR 0109
ENCODING 265
SWIDTH 483 0
DWIDTH 7 0
BBX 5 11 1 0
BITMAP
30
48
00
78
80
80
80
80
80
80
78
ENDCHAR
STARTCHAR 010A
ENCODING 266
SWIDTH 621 0
DWIDTH 9 0
BBX 7 12 1 0
BITMAP
08
00
3E
40
80
80
80
80
80
80
40
3E
ENDCHAR
STARTCHAR 010B
ENCODING 267
SWIDTH 483 0
DWIDTH 7 0
BBX 5 10 1 0
BITMAP
20
00
78
80
80
80
80
80
80
78
ENDCHAR
STARTCHAR 010C
ENCODING 268
SWIDTH 621 0
DWIDTH 9 0
BBX 7 13 1 0
BITMAP
24
18
00
3E
40
80
80
80
80
80
80
40
3E
ENDCHAR
STARTCHAR 010D
ENCODING 269
SWIDTH 483 0
DWIDTH 7 0
BBX 5 11 1 0
BITMAP
48
30
00
78
80
80
80
80
80
80
78
ENDCHAR
STARTCHAR 010E
ENCODING 270
SWIDTH 690 0
DWIDTH 10 0
BBX 8 13 1 0
BITMAP
24
18
00
FC
82
81
81
81
81
81
81
82
FC
ENDCHAR
STARTCHAR 010F
ENCODING 271
SWIDTH 552 0
DWIDTH 8 0
BBX 8 11 1 0
BITMAP
05
05
04
7C
84
84
84
84
84
84
7C
ENDCHAR
STARTCHAR 0110
ENCODING 272
SWIDTH 690 0
DWIDTH 10 0
BBX 9 10 0 0
BITMAP
7E00
4100
4080
4080
F880
4080
4080
4080
4100
7E00
ENDCHAR
STARTCHAR 0111
ENCODING 273
SWIDTH 552 0
DWIDTH 8 0
BBX 7 11 1 0
BITMAP
04
3E
04
7C
84
84
84
84
84
84
7C
ENDCHAR
STARTCHAR 0112
ENCODING 274
SWIDTH 552 0
DWIDTH 8 0
BBX 6 12 1 0
BITMAP
78
00
FC
80
80
80
FC
80
80
80
80
FC
ENDCHAR
STARTCHAR 0113
ENCODING 275
SWIDTH 552 0
DWIDTH 8 0
BBX 6 10 1 0
BITMAP
78
00
78
84
84
FC
80
80
80
7C
ENDCHAR
STARTCHAR 0114
ENCODING 276
SWIDTH 552 0
DWIDTH 8 0
BBX 6 13 1 0
BITMAP
48
30
00
FC
80
80
80
FC
80
80
80
80
FC
ENDCHAR
STARTCHAR 0115
ENCODING 277
SWIDTH 552 0
DWIDTH 8 0
BBX 6 11 1 0
BITMAP
48
30
00
78
84
84
FC
80
80
80
7C
ENDCHAR
STARTCHAR 0116
ENCODING 278
SWIDTH 552 0
DWIDTH 8 0
BBX 6 12 1 0
BITMAP
10
00
FC
80
80
80
FC
80
80
80
80
FC
ENDCHAR
STARTCHAR 0117
ENCODING 279
SWIDTH 552 0
DWIDTH 8 0
BBX 6 10 1 0
BITMAP
20
00
78
84
84
FC
80
80
80
7C
ENDCHAR
STARTCHAR 0118
ENCODING 280
SWIDTH 552 0
DWIDTH 8 0
BBX 6 13 1 -3
BITMAP
FC
80
80
80
FC
80
80
80
80
FC
08
10
08
ENDCHAR
STARTCHAR 0119
ENCODING 281
SWIDTH 552 0
DWIDTH 8 0
BBX 6 11 1 -3
BITMAP
78
84
84
FC
80
80
80
7C
08
10
08
ENDCHAR
STARTCHAR 011A
ENCODING 282
SWIDTH 552 0
DWIDTH 8 0
BBX 6 13 1 0
BITMAP
48
30
00
FC
80
80
80
FC
80
80
80
80
FC
ENDCHAR
STARTCHAR 011B
ENCODING 283
SWIDTH 552 0
DWIDTH 8 0
BBX 6 11 1 0
BITMAP
48
30
00
78
84
84
FC
80
80
80
7C
ENDCHAR
STARTCHAR 011C
ENCODING 284
SWIDTH 690 0
DWIDTH 10 0
BBX 8 13 1 0
BITMAP
18
24
00
3F
40
80
80
80
8F
81
81
41
3F
ENDCHAR
STARTCHAR 011D
ENCODING 285
SWIDTH 483 0
DWIDTH 7 0
BBX 7 14 0 -3
BITMAP
18
24
00
3C
44
44
44
38
40
40
7C
82
82
7C
ENDCHAR
STARTCHAR 011E
ENCODING 286
SWIDTH 690 0
DWIDTH 10 0
BBX 8 13 1 0
BITMAP
24
18
00
3F
40
80
80
80
8F
81
81
41
3F
ENDCHAR
STARTCHAR 011F
ENCODING 287
SWIDTH 483 0
DWIDTH 7 0
BBX 7 14 0 -3
BITMAP
24
18
00
3C
44
44
44
38
40
40
7C
82
82
7C
ENDCHAR
STARTCHAR 0120
ENCODING 288
SWIDTH 690 0
DWIDTH 10 0
BBX 8 12 1 0
BITMAP
08
00
3F
40
80
80
80
8F
81
81
41
3F
ENDCHAR
STARTCHAR 0121
ENCODING 289
SWIDTH 483 0
DWIDTH 7 0
BBX 7 13 0 -3
BITMAP
10
00
3C
44
44
44
38
40
40
7C
82
82
7C
ENDCHAR
STARTCHAR 0122
ENCODING 290
SWIDTH 690 0
DWIDTH 10 0
BBX 8 13 1 -3
BITMAP
3F
40
80
80
80
8F
81
81
41
3F
00
08
08
ENDCHAR
STARTCHAR 0123
ENCODING 291
SWIDTH 483 0
DWIDTH 7 0
BBX 7 14 0 -3
BITMAP
10
10
00
3C
44
44
44
38
40
40
7C
82
82
7C
ENDCHAR
STARTCHAR 0124
ENCODING 292
SWIDTH 690 0
DWIDTH 10 0
BBX 8 13 1 0
BITMAP
18
24
00
81
81
81
81
FF
81
81
81
81
81
ENDCHAR
STARTCHAR 0125
ENCODING 293
SWIDTH 552 0
DWIDTH 8 0
BBX 6 14 1 0
BITMAP
30
48
00
80
80
80
F8
84
84
84
84
84
84
84
ENDCHAR
STARTCHAR 0126
ENCODING 294
SWIDTH 690 0
DWIDTH 10 0
BBX 10 10 0 0
BITMAP
4080
4080
FFC0
4080
7F80
4080
4080
4080
4080
4080
ENDCHAR
STARTCHAR 0127
ENCODING 295
SWIDTH 552 0
DWIDTH 8 0
BBX 7 11 0 0
BITMAP
40
F8
40
7C
42
42
42
42
42
42
42
ENDCHAR
STARTCHAR 0128
ENCODING 296
SWIDTH 276 0
DWIDTH 4 0
BBX 5 13 0 0
BITMAP
C8
B0
00
40
40
40
40
40
40
40
40
40
40
ENDCHAR
STARTCHAR 0129
ENCODING 297
SWIDTH 207 0
DWIDTH 3 0
BBX 5 11 -1 0
BITMAP
C8
B0
00
20
20
20
20
20
20
20
20
ENDCHAR
STARTCHAR 012A
ENCODING 298
SWIDTH 276 0
DWIDTH 4 0
BBX 4 12 0 0
BITMAP
F0
00
40
40
40
40
40
40
40
40
40
40
ENDCHAR
STARTCHAR 012B
ENCODING 299
SWIDTH 207 0
DWIDTH 3 0
BBX 4 10 0 0
BITMAP
F0
00
40
40
40
40
40
40
40
40
ENDCHAR
STARTCHAR 012C
ENCODING 300
SWIDTH 276 0
DWIDTH 4 0
BBX 4 13 0 0
BITMAP
90
60
00
40
40
40
40
40
40
40
40
40
40
ENDCHAR
STARTCHAR 012D
ENCODING 301
SWIDTH 207 0
DWIDTH 3 0
BBX 4 11 0 0
BITMAP
90
60
00
40
40
40
40
40
40
40
40
ENDCHAR
STARTCHAR 012E
ENCODING 302
SWIDTH 276 0
DWIDTH 4 0
BBX 2 13 0 -3
BITMAP
40
40
40
40
40
40
40
40
40
40
40
80
40
ENDCHAR
STARTCHAR 012F
ENCODING 303
SWIDTH 207 0
DWIDTH 3 0
BBX 2 13 0 -3
BITMAP
40
00
40
40
40
40
40
40
40
40
40
80
40
ENDCHAR
STARTCHAR 0130
ENCODING 304
SWIDTH 276 0
DWIDTH 4 0
BBX 1 12 1 0
BITMAP
80
00
80
80
80
80
80
80
80
80
80
80
ENDCHAR
STARTCHAR 0131
ENCODING 305
SWIDTH 207 0
DWIDTH 3 0
BBX 1 8 1 0
BITMAP
80
80
80
80
80
80
80
80
ENDCHAR
STARTCHAR 0132
ENCODING 306
SWIDTH 483 0
DWIDTH 7 0
BBX 4 13 2 -3
BITMAP
90
90
90
90
90
90
90
90
90
90
10
10
60
ENDCHAR
STARTCHAR 0133
ENCODING 307
SWIDTH 414 0
DWIDTH 6 0
BBX 4 13 1 -3
BITMAP
90
00
90
90
90
90
90
90
90
90
10
10
60
ENDCHAR
STARTCHAR 0134
ENCODING 308
SWIDTH 207 0
DWIDTH 3 0
BBX 5 16 -1 -3
BITMAP
30
48
00
20
20
20
20
20
20
20
20
20
20
20
20
C0
ENDCHAR
STARTCHAR 0135
ENCODING 309
SWIDTH 207 0
DWIDTH 3 0
BBX 5 14 -1 -3
BITMAP
30
48
00
20
20
20
20
20
20
20
20
20
20
C0
ENDCHAR
STARTCHAR 0136
ENCODING 310
SWIDTH 552 0
DWIDTH 8 0
BBX 7 13 1 -3
BITMAP
84
84
88
90
A0
D0
88
88
84
82
00
10
10
ENDCHAR
STARTCHAR 0137
ENCODING 311
SWIDTH 483 0
DWIDTH 7 0
BBX 6 14 1 -3
BITMAP
80
80
80
88
88
90
A0
D0
90
88
84
00
20
20
ENDCHAR
STARTCHAR 0138
ENCODING 312
SWIDTH 483 0
DWIDTH 7 0
BBX 6 8 1 0
BITMAP
88
88
90
A0
D0
90
88
84
ENDCHAR
STARTCHAR 0139
ENCODING 313
SWIDTH 483 0
DWIDTH 7 0
BBX 6 13 1 0
BITMAP
20
40
00
80
80
80
80
80
80
80
80
80
FC
ENDCHAR
STARTCHAR 013A
ENCODING 314
SWIDTH 207 0
DWIDTH 3 0
BBX 2 14 1 0
BITMAP
40
80
00
80
80
80
80
80
80
80
80
80
80
80
ENDCHAR
STARTCHAR 013B
ENCODING 315
SWIDTH 483 0
DWIDTH 7 0
BBX 6 13 1 -3
BITMAP
80
80
80
80
80
80
80
80
80
FC
00
20
20
ENDCHAR
STARTCHAR 013C
ENCODING 316
SWIDTH 207 0
DWIDTH 3 0
BBX 1 14 1 -3
BITMAP
80
80
80
80
80
80
80
80
80
80
80
00
80
80
ENDCHAR
STARTCHAR 013D
ENCODING 317
SWIDTH 483 0
DWIDTH 7 0
BBX 6 10 1 0
BITMAP
88
88
80
80
80
80
80
80
80
FC
ENDCHAR
STARTCHAR 013E
ENCODING 318
SWIDTH 207 0
DWIDTH 3 0
BBX 3 11 1 0
BITMAP
A0
A0
80
80
80
80
80
80
80
80
80
ENDCHAR
STARTCHAR 013F
ENCODING 319
SWIDTH 483 0
DWIDTH 7 0
BBX 6 10 1 0
BITMAP
80
80
80
80
80
88
80
80
80
FC
ENDCHAR
STARTCHAR 0140
ENCODING 320
SWIDTH 207 0
DWIDTH 3 0
BBX 3 11 1 0
BITMAP
80
80
80
80
80
80
A0
80
80
80
80
ENDCHAR
STARTCHAR 0141
ENCODING 321
SWIDTH 483 0
DWIDTH 7 0
BBX 7 10 0 0
BITMAP
40
40
40
40
58
60
C0
40
40
7E
ENDCHAR
STARTCHAR 0142
ENCODING 322
SWIDTH 207 0
DWIDTH 3 0
BBX 3 11 0 0
BITMAP
40
40
40
40
60
C0
40
40
40
40
40
ENDCHAR
STARTCHAR 0143
ENCODING 323
SWIDTH 690 0
DWIDTH 10 0
BBX 8 13 1 0
BITMAP
04
08
00
81
C1
A1
91
91
89
89
85
83
81
ENDCHAR
STARTCHAR 0144
ENCODING 324
SWIDTH 552 0
DWIDTH 8 0
BBX 6 11 1 0
BITMAP
08
10
00
F8
84
84
84
84
84
84
84
ENDCHAR
STARTCHAR 0145
ENCODING 325
SWIDTH 690 0
DWIDTH 10 0
BBX 8 13 1 -3
BITMAP
81
C1
A1
91
91
89
89
85
83
81
00
10
10
ENDCHAR
STARTCHAR 0146
ENCODING 326
SWIDTH 552 0
DWIDTH 8 0
BBX 6 11 1 -3
BITMAP
F8
84
84
84
84
84
84
84
00
10
10
ENDCHAR
STARTCHAR 0147
ENCODING 327
SWIDTH 690 0
DWIDTH 10 0
BBX 8 13 1 0
BITMAP
24
18
00
81
C1
A1
91
91
89
89
85
83
81
ENDCHAR
STARTCHAR 0148
ENCODING 328
SWIDTH 552 0
DWIDTH 8 0
BBX 6 11 1 0
BITMAP
48
30
00
F8
84
84
84
84
84
84
84
ENDCHAR
STARTCHAR 0149
ENCODING 329
SWIDTH 621 0
DWIDTH 9 0
BBX 8 10 0 0
BITMAP
40
80
BE
21
21
21
21
21
21
21
ENDCHAR
STARTCHAR 014A
ENCODING 330
SWIDTH 690 0
DWIDTH 10 0
BBX 8 13 1 -3
BITMAP
81
C1
A1
91
91
89
89
85
83
81
01
01
0E
ENDCHAR
STARTCHAR 014B
ENCODING 331
SWIDTH 552 0
DWIDTH 8 0
BBX 6 11 1 -3
BITMAP
F8
84
84
84
84
84
84
84
04
04
18
ENDCHAR
STARTCHAR 014C
ENCODING 332
SWIDTH 759 0
DWIDTH 11 0
BBX 9 12 1 0
BITMAP
3C00
0000
3E00
4100
8080
8080
8080
8080
8080
8080
4100
3E00
ENDCHAR
STARTCHAR 014D
ENCODING 333
SWIDTH 552 0
DWIDTH 8 0
BBX 6 10 1 0
BITMAP
78
00
78
84
84
84
84
84
84
78
ENDCHAR
STARTCHAR 014E
ENCODING 334
SWIDTH 759 0
DWIDTH 11 0
BBX 9 13 1 0
BITMAP
2400
1800
0000
3E00
4100
8080
8080
8080
8080
8080
8080
4100
3E00
ENDCHAR
STARTCHAR 014F
ENCODING 335
SWIDTH 552 0
DWIDTH 8 0
BBX 6 11 1 0
BITMAP
48
30
00
78
84
84
84
84
84
84
78
ENDCHAR
STARTCHAR 0150
ENCODING 336
SWIDTH 759 0
DWIDTH 11 0
BBX 9 13 1 0
BITMAP
0A00
1400
0000
3E00
4100
8080
8080
8080
8080
8080
8080
4100
3E00
ENDCHAR
STARTCHAR 0151
ENCODING 337
SWIDTH 552 0
DWIDTH 8 0
BBX 6 11 1 0
BITMAP
14
28
00
78
84
84
84
84
84
84
78
ENDCHAR
STARTCHAR 0152
ENCODING 338
SWIDTH 897 0
DWIDTH 13 0
BBX 11 10 1 0
BITMAP
3FE0
4200
8200
8200
83E0
8200
8200
8200
4200
3FE0
ENDCHAR
STARTCHAR 0153
ENCODING 339
SWIDTH 897 0
DWIDTH 13 0
BBX 11 8 1 0
BITMAP
79C0
8620
8420
87E0
8400
8400
8600
79E0
ENDCHAR
STARTCHAR 0154
ENCODING 340
SWIDTH 552 0
DWIDTH 8 0
BBX 7 13 1 0
BITMAP
08
10
00
F8
84
84
84
8C
F0
88
88
84
82
ENDCHAR
STARTCHAR 0155
ENCODING 341
SWIDTH 345 0
DWIDTH 5 0
BBX 4 11 1 0
BITMAP
10
20
00
F0
80
80
80
80
80
80
80
ENDCHAR
STARTCHAR 0156
ENCODING 342
SWIDTH 552 0
DWIDTH 8 0
BBX 7 13 1 -3
BITMAP
F8
84
84
84
8C
F0
88
88
84
82
00
10
10
ENDCHAR
STARTCHAR 0157
ENCODING 343
SWIDTH 345 0
DWIDTH 5 0
BBX 4 11 1 -3
BITMAP
F0
80
80
80
80
80
80
80
00
80
80
ENDCHAR
STARTCHAR 0158
ENCODING 344
SWIDTH 552 0
DWIDTH 8 0
BBX 7 13 1 0
BITMAP
48
30
00
F8
84
84
84
8C
F0
88
88
84
82
ENDCHAR
STARTCHAR 0159
ENCODING 345
SWIDTH 345 0
DWIDTH 5 0
BBX 4 11 1 0
BITMAP
90
60
00
F0
80
80
80
80
80
80
80
ENDCHAR
STARTCHAR 015A
ENCODING 346
SWIDTH 552 0
DWIDTH 8 0
BBX 6 13 1 0
BITMAP
10
20
00
7C
80
80
80
60
18
04
04
04
F8
ENDCHAR
STARTCHAR 015B
ENCODING 347
SWIDTH 483 0
DWIDTH 7 0
BBX 5 11 1 0
BITMAP
10
20
00
78
80
80
60
18
08
08
F0
ENDCHAR
STARTCHAR 015C
ENCODING 348
SWIDTH 552 0
DWIDTH 8 0
BBX 6 13 1 0
BITMAP
30
48
00
7C
80
80
80
60
18
04
04
04
F8
ENDCHAR
STARTCHAR 015D
ENCODING 349
SWIDTH 483 0
DWIDTH 7 0
BBX 5 11 1 0
BITMAP
60
90
00
78
80
80
60
18
08
08
F0
ENDCHAR
STARTCHAR 015E
ENCODING 350
SWIDTH 552 0
DWIDTH 8 0
BBX 6 13 1 -3
BITMAP
7C
80
80
80
60
18
04
04
04
F8
20
30
70
ENDCHAR
STARTCHAR 015F
ENCODING 351
SWIDTH 483 0
DWIDTH 7 0
BBX 5 11 1 -3
BITMAP
78
80
80
60
18
08
08
F0
20
30
70
ENDCHAR
STARTCHAR 0160
ENCODING 352
SWIDTH 552 0
DWIDTH 8 0
BBX 6 13 1 0
BITMAP
48
30
00
7C
80
80
80
60
18
04
04
04
F8
ENDCHAR
STARTCHAR 0161
ENCODING 353
SWIDTH 483 0
DWIDTH 7 0
BBX 5 11 1 0
BITMAP
90
60
00
78
80
80
60
18
08
08
F0
ENDCHAR
STARTCHAR 0162
ENCODING 354
SWIDTH 483 0
DWIDTH 7 0
BBX 7 13 0 -3
BITMAP
FE
10
10
10
10
10
10
10
10
10
10
18
38
ENDCHAR
STARTCHAR 0163
ENCODING 355
SWIDTH 345 0
DWIDTH 5 0
BBX 5 12 0 -2
BITMAP
40
F0
40
40
40
40
40
40
38
20
30
70
ENDCHAR
STARTCHAR 0164
ENCODING 356
SWIDTH 483 0
DWIDTH 7 0
BBX 7 13 0 0
BITMAP
24
18
00
FE
10
10
10
10
10
10
10
10
10
ENDCHAR
STARTCHAR 0165
ENCODING 357
SWIDTH 345 0
DWIDTH 5 0
BBX 5 11 0 0
BITMAP
10
10
40
F0
40
40
40
40
40
40
38
ENDCHAR
STARTCHAR 0166
ENCODING 358
SWIDTH 483 0
DWIDTH 7 0
BBX 7 10 0 0
BITMAP
FE
10
10
10
10
7C
10
10
10
10
ENDCHAR
STARTCHAR 0167
ENCODING 359
SWIDTH 345 0
DWIDTH 5 0
BBX 5 9 0 1
BITMAP
40
F0
40
40
F0
40
40
40
38
ENDCHAR
STARTCHAR 0168
ENCODING 360
SWIDTH 690 0
DWIDTH 10 0
BBX 8 13 1 0
BITMAP
32
2C
00
81
81
81
81
81
81
81
81
42
3C
ENDCHAR
STARTCHAR 0169
ENCODING 361
SWIDTH 552 0
DWIDTH 8 0
BBX 6 11 1 0
BITMAP
64
58
00
84
84
84
84
84
84
84
7C
ENDCHAR
STARTCHAR 016A
ENCODING 362
SWIDTH 690 0
DWIDTH 10 0
BBX 8 12 1 0
BITMAP
3C
00
81
81
81
81
81
81
81
81
42
3C
ENDCHAR
STARTCHAR 016B
ENCODING 363
SWIDTH 552 0
DWIDTH 8 0
BBX 6 10 1 0
BITMAP
78
00
84
84
84
84
84
84
84
7C
ENDCHAR
STARTCHAR 016C
ENCODING 364
SWIDTH 690 0
DWIDTH 10 0
BBX 8 13 1 0
BITMAP
24
18
00
81
81
81
81
81
81
81
81
42
3C
ENDCHAR
STARTCHAR 016D
ENCODING 365
SWIDTH 552 0
DWIDTH 8 0
BBX 6 11 1 0
BITMAP
48
30
00
84
84
84
84
84
84
84
7C
ENDCHAR
STARTCHAR 016E
ENCODING 366
SWIDTH 690 0
DWIDTH 10 0
BBX 8 14 1 0
BITMAP
18
24
18
00
81
81
81
81
81
81
81
81
42
3C
ENDCHAR
STARTCHAR 016F
ENCODING 367
SWIDTH 552 0
DWIDTH 8 0
BBX 6 12 1 0
BITMAP
30
48
30
00
84
84
84
84
84
84
84
7C
ENDCHAR
STARTCHAR 0170
ENCODING 368
SWIDTH 690 0
DWIDTH 10 0
BBX 8 13 1 0
BITMAP
14
28
00
81
81
81
81
81
81
81
81
42
3C
ENDCHAR
STARTCHAR 0171
ENCODING 369
SWIDTH 552 0
DWIDTH 8 0
BBX 6 11 1 0
BITMAP
14
28
00
84
84
84
84
84
84
84
7C
ENDCHAR
STARTCHAR 0172
ENCODING 370
SWIDTH 690 0
DWIDTH 10 0
BBX 8 13 1 -3
BITMAP
81
81
81
81
81
81
81
81
42
3C
08
10
08
ENDCHAR
STARTCHAR 0173
ENCODING 371
SWIDTH 552 0
DWIDTH 8 0
BBX 6 11 1 -3
BITMAP
84
84
84
84
84
84
84
7C
08
08
0C
ENDCHAR
STARTCHAR 0174
ENCODING 372
SWIDTH 828 0
DWIDTH 12 0
BBX 12 13 0 0
BITMAP
0600
0900
0000
8410
4620
4620
4A20
4920
2940
2940
30C0
1080
1080
ENDCHAR
STARTCHAR 0175
ENCODING 373
SWIDTH 690 0
DWIDTH 10 0
BBX 10 11 0 0
BITMAP
0C00
1200
0000
8440
8C40
4C80
4A80
5280
5280
2300
2100
ENDCHAR
STARTCHAR 0176
ENCODING 374
SWIDTH 483 0
DWIDTH 7 0
BBX 7 13 0 0
BITMAP
18
24
00
82
44
44
28
28
10
10
10
10
10
ENDCHAR
STARTCHAR 0177
ENCODING 375
SWIDTH 414 0
DWIDTH 6 0
BBX 6 14 0 -3
BITMAP
30
48
00
84
84
48
48
48
30
30
20
20
20
C0
ENDCHAR
STARTCHAR 0178
ENCODING 376
SWIDTH 483 0
DWIDTH 7 0
BBX 7 12 0 0
BITMAP
24
00
82
44
44
28
28
10
10
10
10
10
ENDCHAR
STARTCHAR 0179
ENCODING 377
SWIDTH 552 0
DWIDTH 8 0
BBX 6 13 1 0
BITMAP
08
10
00
FC
04
08
10
10
20
40
40
80
FC
ENDCHAR
STARTCHAR 017A
ENCODING 378
SWIDTH 414 0
DWIDTH 6 0
BBX 4 11 1 0
BITMAP
10
20
00
F0
10
20
20
40
40
80
F0
ENDCHAR
STARTCHAR 017B
ENCODING 379
SWIDTH 552 0
DWIDTH 8 0
BBX 6 12 1 0
BITMAP
20
00
FC
04
08
10
10
20
40
40
80
FC
ENDCHAR
STARTCHAR 017C
ENCODING 380
SWIDTH 414 0
DWIDTH 6 0
BBX 4 10 1 0
BITMAP
20
00
F0
10
20
20
40
40
80
F0
ENDCHAR
STARTCHAR 017D
ENCODING 381
SWIDTH 552 0
DWIDTH 8 0
BBX 6 13 1 0
BITMAP
48
30
00
FC
04
08
10
10
20
40
40
80
FC
ENDCHAR
STARTCHAR 017E
ENCODING 382
SWIDTH 414 0
DWIDTH 6 0
BBX 4 11 1 0
BITMAP
90
60
00
F0
10
20
20
40
40
80
F0
ENDCHAR
STARTCHAR 017F
ENCODING 383
SWIDTH 276 0
DWIDTH 4 0
BBX 3 11 1 0
BITMAP
60
80
80
80
80
80
80
80
80
80
80
ENDCHAR
STARTCHAR 0192
ENCODING 402
SWIDTH 552 0
DWIDTH 8 0
BBX 6 13 1 -3
BITMAP
1C
20
20
20
78
20
20
20
20
20
20
20
E0
ENDCHAR
STARTCHAR 01A0
ENCODING 416
SWIDTH 759 0
DWIDTH 11 0
BBX 10 11 1 0
BITMAP
0040
3E40
4180
8080
8080
8080
8080
8080
8080
4100
3E00
ENDCHAR
STARTCHAR 01A1
ENCODING 417
SWIDTH 552 0
DWIDTH 8 0
BBX 7 9 1 0
BITMAP
02
7A
84
84
84
84
84
84
78
ENDCHAR
STARTCHAR 01AF
ENCODING 431
SWIDTH 690 0
DWIDTH 10 0
BBX 10 11 1 0
BITMAP
0040
8180
8100
8100
8100
8100
8100
8100
8100
4200
3C00
ENDCHAR
STARTCHAR 01B0
ENCODING 432
SWIDTH 621 0
DWIDTH 9 0
BBX 8 9 1 0
BITMAP
01
85
82
84
84
84
84
84
7C
ENDCHAR
STARTCHAR 01F0
ENCODING 496
SWIDTH 207 0
DWIDTH 3 0
BBX 5 14 -1 -3
BITMAP
48
30
00
20
20
20
20
20
20
20
20
20
20
C0
ENDCHAR
STARTCHAR 01FA
ENCODING 506
SWIDTH 552 0
DWIDTH 8 0
BBX 8 14 0 0
BITMAP
04
08
18
24
18
18
18
24
24
24
7E
42
81
81
ENDCHAR
STARTCHAR 01FB
ENCODING 507
SWIDTH 483 0
DWIDTH 7 0
BBX 5 14 1 0
BITMAP
10
20
70
50
70
00
F0
08
08
78
88
88
88
F8
ENDCHAR
STARTCHAR 01FC
ENCODING 508
SWIDTH 759 0
DWIDTH 11 0
BBX 10 13 0 0
BITMAP
0100
0200
0000
0FC0
0C00
1400
1400
27C0
2400
7C00
4400
4400
87C0
ENDCHAR
STARTCHAR 01FD
ENCODING 509
SWIDTH 828 0
DWIDTH 12 0
BBX 10 11 1 0
BITMAP
0200
0400
0000
7380
0C40
0840
7FC0
8800
8800
8C00
F3C0
ENDCHAR
STARTCHAR 01FE
ENCODING 510
SWIDTH 759 0
DWIDTH 11 0
BBX 9 13 1 0
BITMAP
0400
0800
0000
3F00
4100
8280
8480
8880
8880
9080
A080
4100
7E00
ENDCHAR
STARTCHAR 01FF
ENCODING 511
SWIDTH 552 0
DWIDTH 8 0
BBX 6 11 1 0
BITMAP
08
10
00
7C
8C
8C
94
A4
C4
C4
F8
ENDCHAR
STARTCHAR 0218
ENCODING 536
SWIDTH 552 0
DWIDTH 8 0
BBX 6 13 1 -3
BITMAP
7C
80
80
80
60
18
04
04
04
F8
00
20
20
ENDCHAR
STARTCHAR 0219
ENCODING 537
SWIDTH 483 0
DWIDTH 7 0
BBX 5 11 1 -3
BITMAP
78
80
80
60
18
08
08
F0
00
20
20
ENDCHAR
STARTCHAR 021A
ENCODING 538
SWIDTH 483 0
DWIDTH 7 0
BBX 7 13 0 -3
BITMAP
FE
10
10
10
10
10
10
10
10
10
00
10
10
ENDCHAR
STARTCHAR 021B
ENCODING 539
SWIDTH 345 0
DWIDTH 5 0
BBX 5 12 0 -2
BITMAP
40
F0
40
40
40
40
40
40
38
00
20
20
ENDCHAR
STARTCHAR 0237
ENCODING 567
SWIDTH 207 0
DWIDTH 3 0
BBX 3 11 -1 -3
BITMAP
20
20
20
20
20
20
20
20
20
20
C0
ENDCHAR
STARTCHAR 02BC
ENCODING 700
SWIDTH 138 0
DWIDTH 2 0
BBX 2 3 0 7
BITMAP
40
80
80
ENDCHAR
STARTCHAR 02C6
ENCODING 710
SWIDTH 552 0
DWIDTH 8 0
BBX 4 2 2 8
BITMAP
60
90
ENDCHAR
STARTCHAR 02C7
ENCODING 711
SWIDTH 552 0
DWIDTH 8 0
BBX 4 2 2 8
BITMAP
90
60
ENDCHAR
STARTCHAR 02C9
ENCODING 713
SWIDTH 552 0
DWIDTH 8 0
BBX 4 1 2 9
BITMAP
F0
ENDCHAR
STARTCHAR 02D8
ENCODING 728
SWIDTH 552 0
DWIDTH 8 0
BBX 4 2 2 8
BITMAP
90
60
ENDCHAR
STARTCHAR 02D9
ENCODING 729
SWIDTH 207 0
DWIDTH 3 0
BBX 1 1 1 9
BITMAP
80
ENDCHAR
STARTCHAR 02DA
ENCODING 730
SWIDTH 552 0
DWIDTH 8 0
BBX 2 3 3 9
BITMAP
C0
C0
C0
ENDCHAR
STARTCHAR 02DB
ENCODING 731
SWIDTH 138 0
DWIDTH 2 0
BBX 2 3 0 -3
BITMAP
40
80
40
ENDCHAR
STARTCHAR 02DC
ENCODING 732
SWIDTH 552 0
DWIDTH 8 0
BBX 5 2 2 9
BITMAP
C8
B0
ENDCHAR
STARTCHAR 02DD
ENCODING 733
SWIDTH 552 0
DWIDTH 8 0
BBX 4 2 2 8
BITMAP
50
A0
ENDCHAR
STARTCHAR 02F3
ENCODING 755
SWIDTH 345 0
DWIDTH 5 0
BBX 3 3 1 -4
BITMAP
E0
A0
E0
ENDCHAR
STARTCHAR 0300
ENCODING 768
SWIDTH 0 0
DWIDTH 0 0
BBX 2 2 -6 8
BITMAP
80
40
ENDCHAR
STARTCHAR 0301
ENCODING 769
SWIDTH 0 0
DWIDTH 0 0
BBX 2 2 -5 8
BITMAP
40
80
ENDCHAR
STARTCHAR 0303
ENCODING 771
SWIDTH 0 0
DWIDTH 0 0
BBX 5 2 -6 9
BITMAP
C8
B0
ENDCHAR
STARTCHAR 0309
ENCODING 777
SWIDTH 0 0
DWIDTH 0 0
BBX 2 3 -5 8
BITMAP
C0
40
80
ENDCHAR
STARTCHAR 030F
ENCODING 783
SWIDTH 0 0
DWIDTH 0 0
BBX 4 2 -7 8
BITMAP
90
50
ENDCHAR
STARTCHAR 0323
ENCODING 803
SWIDTH 0 0
DWIDTH 0 0
BBX 1 1 -5 -2
BITMAP
80
ENDCHAR
STARTCHAR 0384
ENCODING 900
SWIDTH 552 0
DWIDTH 8 0
BBX 1 3 4 8
BITMAP
80
80
80
ENDCHAR
STARTCHAR 0385
ENCODING 901
SWIDTH 552 0
DWIDTH 8 0
BBX 4 3 2 9
BITMAP
20
20
90
ENDCHAR
STARTCHAR 0386
ENCODING 902
SWIDTH 552 0
DWIDTH 8 0
BBX 8 11 0 0
BITMAP
40
48
98
18
24
24
24
7E
42
81
81
ENDCHAR
STARTCHAR 0387
ENCODING 903
SWIDTH 207 0
DWIDTH 3 0
BBX 1 1 1 4
BITMAP
80
ENDCHAR
STARTCHAR 0388
ENCODING 904
SWIDTH 552 0
DWIDTH 8 0
BBX 8 11 0 0
BITMAP
80
BF
A0
20
20
3F
20
20
20
20
3F
ENDCHAR
STARTCHAR 0389
ENCODING 905
SWIDTH 759 0
DWIDTH 11 0
BBX 10 11 0 0
BITMAP
8000
A040
A040
2040
2040
3FC0
2040
2040
2040
2040
2040
ENDCHAR
STARTCHAR 038A
ENCODING 906
SWIDTH 276 0
DWIDTH 4 0
BBX 3 11 0 0
BITMAP
80
A0
A0
20
20
20
20
20
20
20
20
ENDCHAR
STARTCHAR 038C
ENCODING 908
SWIDTH 759 0
DWIDTH 11 0
BBX 10 11 0 0
BITMAP
8000
9F00
A080
4040
4040
4040
4040
4040
4040
2080
1F00
ENDCHAR
STARTCHAR 038E
ENCODING 910
SWIDTH 621 0
DWIDTH 9 0
BBX 9 11 0 0
BITMAP
8000
A080
9100
1100
0A00
0A00
0400
0400
0400
0400
0400
ENDCHAR
STARTCHAR 038F
ENCODING 911
SWIDTH 759 0
DWIDTH 11 0
BBX 10 10 0 0
BITMAP
9F00
A080
C040
4040
4040
4040
4040
2080
2080
71C0
ENDCHAR
STARTCHAR 0390
ENCODING 912
SWIDTH 276 0
DWIDTH 4 0
BBX 4 12 0 0
BITMAP
20
20
90
00
40
40
40
40
40
40
40
30
ENDCHAR
STARTCHAR 0391
ENCODING 913
SWIDTH 552 0
DWIDTH 8 0
BBX 8 10 0 0
BITMAP
08
18
18
24
24
24
7E
42
81
81
ENDCHAR
STARTCHAR 0392
ENCODING 914
SWIDTH 621 0
DWIDTH 9 0
BBX 7 10 1 0
BITMAP
FC
82
82
82
FC
82
82
82
82
FC
ENDCHAR
STARTCHAR 0393
ENCODING 915
SWIDTH 483 0
DWIDTH 7 0
BBX 6 10 1 0
BITMAP
FC
80
80
80
80
80
80
80
80
80
ENDCHAR
STARTCHAR 0394
ENCODING 916
SWIDTH 552 0
DWIDTH 8 0
BBX 8 10 0 0
BITMAP
10
18
18
24
24
24
42
42
81
FF
ENDCHAR
STARTCHAR 0395
ENCODING 917
SWIDTH 552 0
DWIDTH 8 0
BBX 6 10 1 0
BITMAP
FC
80
80
80
FC
80
80
80
80
FC
ENDCHAR
STARTCHAR 0396
ENCODING 918
SWIDTH 552 0
DWIDTH 8 0
BBX 6 10 1 0
BITMAP
FC
04
08
10
10
20
40
40
80
FC
ENDCHAR
STARTCHAR 0397
ENCODING 919
SWIDTH 690 0
DWIDTH 10 0
BBX 8 10 1 0
BITMAP
81
81
81
81
FF
81
81
81
81
81
ENDCHAR
STARTCHAR 0398
ENCODING 920
SWIDTH 759 0
DWIDTH 11 0
BBX 9 10 1 0
BITMAP
3E00
4100
8080
8080
BE80
8080
8080
8080
4100
3E00
ENDCHAR
STARTCHAR 0399
ENCODING 921
SWIDTH 276 0
DWIDTH 4 0
BBX 1 10 1 0
BITMAP
80
80
80
80
80
80
80
80
80
80
ENDCHAR
STARTCHAR 039A
ENCODING 922
SWIDTH 552 0
DWIDTH 8 0
BBX 7 10 1 0
BITMAP
84
84
88
90
A0
D0
88
88
84
82
ENDCHAR
STARTCHAR 039B
ENCODING 923
SWIDTH 552 0
DWIDTH 8 0
BBX 8 10 0 0
BITMAP
08
18
18
24
24
24
42
42
81
81
ENDCHAR
STARTCHAR 039C
ENCODING 924
SWIDTH 828 0
DWIDTH 12 0
BBX 10 10 1 0
BITMAP
C0C0
C0C0
A140
A140
A140
9240
9240
8C40
8C40
8840
ENDCHAR
STARTCHAR 039D
ENCODING 925
SWIDTH 690 0
DWIDTH 10 0
BBX 8 10 1 0
BITMAP
81
C1
A1
91
91
89
89
85
83
81
ENDCHAR
STARTCHAR 039E
ENCODING 926
SWIDTH 483 0
DWIDTH 7 0
BBX 7 10 0 0
BITMAP
7C
00
00
00
7C
00
00
00
00
FE
ENDCHAR
STARTCHAR 039F
ENCODING 927
SWIDTH 759 0
DWIDTH 11 0
BBX 9 10 1 0
BITMAP
3E00
4100
8080
8080
8080
8080
8080
8080
4100
3E00
ENDCHAR
STARTCHAR 03A0
ENCODING 928
SWIDTH 690 0
DWIDTH 10 0
BBX 8 10 1 0
BITMAP
FF
81
81
81
81
81
81
81
81
81
ENDCHAR
STARTCHAR 03A1
ENCODING 929
SWIDTH 552 0
DWIDTH 8 0
BBX 6 10 1 0
BITMAP
F8
84
84
84
8C
F0
80
80
80
80
ENDCHAR
STARTCHAR 03A3
ENCODING 931
SWIDTH 552 0
DWIDTH 8 0
BBX 8 10 0 0
BITMAP
7E
40
20
10
08
08
10
20
40
FF
ENDCHAR
STARTCHAR 03A4
ENCODING 932
SWIDTH 483 0
DWIDTH 7 0
BBX 7 10 0 0
BITMAP
FE
10
10
10
10
10
10
10
10
10
ENDCHAR
STARTCHAR 03A5
ENCODING 933
SWIDTH 483 0
DWIDTH 7 0
BBX 7 10 0 0
BITMAP
82
44
44
28
28
10
10
10
10
10
ENDCHAR
STARTCHAR 03A6
ENCODING 934
SWIDTH 759 0
DWIDTH 11 0
BBX 9 10 1 0
BITMAP
0800
3F00
C880
8880
8880
8880
8880
C980
3E00
0800
ENDCHAR
STARTCHAR 03A7
ENCODING 935
SWIDTH 552 0
DWIDTH 8 0
BBX 8 10 0 0
BITMAP
41
42
24
18
18
18
24
24
42
81
ENDCHAR
STARTCHAR 03A8
ENCODING 936
SWIDTH 759 0
DWIDTH 11 0
BBX 9 10 1 0
BITMAP
8880
8880
8880
8880
8880
8880
7F00
0800
0800
0800
ENDCHAR
STARTCHAR 03A9
ENCODING 937
SWIDTH 759 0
DWIDTH 11 0
BBX 9 10 1 0
BITMAP
3E00
4100
8080
8080
8080
8080
8080
4100
4100
E380
ENDCHAR
STARTCHAR 03AA
ENCODING 938
SWIDTH 276 0
DWIDTH 4 0
BBX 4 12 0 0
BITMAP
90
00
40
40
40
40
40
40
40
40
40
40
ENDCHAR
STARTCHAR 03AB
ENCODING 939
SWIDTH 483 0
DWIDTH 7 0
BBX 7 12 0 0
BITMAP
24
00
82
44
44
28
28
10
10
10
10
10
ENDCHAR
STARTCHAR 03AC
ENCODING 940
SWIDTH 552 0
DWIDTH 8 0
BBX 7 12 1 0
BITMAP
10
10
20
00
7C
84
84
84
84
84
84
7E
ENDCHAR
STARTCHAR 03AD
ENCODING 941
SWIDTH 414 0
DWIDTH 6 0
BBX 5 12 1 0
BITMAP
20
20
40
00
F8
80
80
60
80
80
80
70
ENDCHAR
STARTCHAR 03AE
ENCODING 942
SWIDTH 552 0
DWIDTH 8 0
BBX 6 15 1 -3
BITMAP
10
10
20
00
F8
84
84
84
84
84
84
84
04
04
04
ENDCHAR
STARTCHAR 03AF
ENCODING 943
SWIDTH 276 0
DWIDTH 4 0
BBX 3 12 1 0
BITMAP
40
40
80
00
80
80
80
80
80
80
80
60
ENDCHAR
STARTCHAR 03B0
ENCODING 944
SWIDTH 552 0
DWIDTH 8 0
BBX 6 12 1 0
BITMAP
10
10
48
00
84
84
84
84
84
84
84
78
ENDCHAR
STARTCHAR 03B1
ENCODING 945
SWIDTH 552 0
DWIDTH 8 0
BBX 7 8 1 0
BITMAP
7C
84
84
84
84
84
84
7E
ENDCHAR
STARTCHAR 03B2
ENCODING 946
SWIDTH 621 0
DWIDTH 9 0
BBX 7 14 1 -3
BITMAP
3C
42
82
82
84
9C
82
82
82
82
FC
80
80
80
ENDCHAR
STARTCHAR 03B3
ENCODING 947
SWIDTH 483 0
DWIDTH 7 0
BBX 7 11 0 -3
BITMAP
82
44
44
44
28
28
10
10
10
10
20
ENDCHAR
STARTCHAR 03B4
ENCODING 948
SWIDTH 552 0
DWIDTH 8 0
BBX 6 11 1 0
BITMAP
38
40
40
20
30
4C
84
84
84
84
78
ENDCHAR
STARTCHAR 03B5
ENCODING 949
SWIDTH 414 0
DWIDTH 6 0
BBX 5 8 1 0
BITMAP
F8
80
80
60
80
80
80
70
ENDCHAR
STARTCHAR 03B6
ENCODING 950
SWIDTH 483 0
DWIDTH 7 0
BBX 6 14 1 -3
BITMAP
FC
08
10
20
40
80
80
80
80
80
70
08
04
08
ENDCHAR
STARTCHAR 03B7
ENCODING 951
SWIDTH 552 0
DWIDTH 8 0
BBX 6 11 1 -3
BITMAP
F8
84
84
84
84
84
84
84
04
04
04
ENDCHAR
STARTCHAR 03B8
ENCODING 952
SWIDTH 552 0
DWIDTH 8 0
BBX 6 11 1 0
BITMAP
78
84
84
84
84
FC
84
84
84
84
78
ENDCHAR
STARTCHAR 03B9
ENCODING 953
SWIDTH 276 0
DWIDTH 4 0
BBX 3 8 1 0
BITMAP
80
80
80
80
80
80
80
60
ENDCHAR
STARTCHAR 03BA
ENCODING 954
SWIDTH 483 0
DWIDTH 7 0
BBX 6 8 1 0
BITMAP
88
88
90
A0
D0
90
88
84
ENDCHAR
STARTCHAR 03BB
ENCODING 955
SWIDTH 483 0
DWIDTH 7 0
BBX 7 11 0 0
BITMAP
60
20
10
10
30
28
28
48
44
84
82
ENDCHAR
STARTCHAR 03BC
ENCODING 956
SWIDTH 552 0
DWIDTH 8 0
BBX 6 11 1 -3
BITMAP
84
84
84
84
84
84
84
FC
80
80
80
ENDCHAR
STARTCHAR 03BD
ENCODING 957
SWIDTH 483 0
DWIDTH 7 0
BBX 6 8 0 0
BITMAP
84
84
44
44
44
28
28
10
ENDCHAR
STARTCHAR 03BE
ENCODING 958
SWIDTH 414 0
DWIDTH 6 0
BBX 5 14 1 -3
BITMAP
F0
40
80
80
80
70
80
80
80
80
70
08
08
10
ENDCHAR
STARTCHAR 03BF
ENCODING 959
SWIDTH 552 0
DWIDTH 8 0
BBX 6 8 1 0
BITMAP
78
84
84
84
84
84
84
78
ENDCHAR
STARTCHAR 03C0
ENCODING 960
SWIDTH 621 0
DWIDTH 9 0
BBX 9 8 0 0
BITMAP
FF80
2200
2200
2200
2200
2200
2200
2100
ENDCHAR
STARTCHAR 03C1
ENCODING 961
SWIDTH 552 0
DWIDTH 8 0
BBX 6 11 1 -3
BITMAP
78
84
84
84
84
84
84
F8
80
80
80
ENDCHAR
STARTCHAR 03C2
ENCODING 962
SWIDTH 483 0
DWIDTH 7 0
BBX 5 11 1 -3
BITMAP
78
80
80
80
80
80
80
70
08
08
08
ENDCHAR
STARTCHAR 03C3
ENCODING 963
SWIDTH 552 0
DWIDTH 8 0
BBX 7 8 1 0
BITMAP
7E
84
84
84
84
84
84
78
ENDCHAR
STARTCHAR 03C4
ENCODING 964
SWIDTH 414 0
DWIDTH 6 0
BBX 6 8 0 0
BITMAP
FC
20
20
20
20
20
20
18
ENDCHAR
STARTCHAR 03C5
ENCODING 965
SWIDTH 552 0
DWIDTH 8 0
BBX 6 8 1 0
BITMAP
84
84
84
84
84
84
84
78
ENDCHAR
STARTCHAR 03C6
ENCODING 966
SWIDTH 690 0
DWIDTH 10 0
BBX 8 11 1 -3
BITMAP
4E
89
91
91
91
91
D2
3C
10
10
10
ENDCHAR
STARTCHAR 03C7
ENCODING 967
SWIDTH 483 0
DWIDTH 7 0
BBX 7 11 0 -3
BITMAP
C4
44
28
28
10
10
30
28
48
44
86
ENDCHAR
STARTCHAR 03C8
ENCODING 968
SWIDTH 690 0
DWIDTH 10 0
BBX 8 14 1 -3
BITMAP
08
08
08
89
89
89
89
89
89
4A
3C
08
08
08
ENDCHAR
STARTCHAR 03C9
ENCODING 969
SWIDTH 690 0
DWIDTH 10 0
BBX 8 8 1 0
BITMAP
81
81
81
89
89
89
99
66
ENDCHAR
STARTCHAR 03CA
ENCODING 970
SWIDTH 276 0
DWIDTH 4 0
BBX 4 10 0 0
BITMAP
90
00
40
40
40
40
40
40
40
30
ENDCHAR
STARTCHAR 03CB
ENCODING 971
SWIDTH 552 0
DWIDTH 8 0
BBX 6 10 1 0
BITMAP
48
00
84
84
84
84
84
84
84
78
ENDCHAR
STARTCHAR 03CC
ENCODING 972
SWIDTH 552 0
DWIDTH 8 0
BBX 6 12 1 0
BITMAP
10
10
20
00
78
84
84
84
84
84
84
78
ENDCHAR
STARTCHAR 03CD
ENCODING 973
SWIDTH 552 0
DWIDTH 8 0
BBX 6 12 1 0
BITMAP
10
10
20
00
84
84
84
84
84
84
84
78
ENDCHAR
STARTCHAR 03CE
ENCODING 974
SWIDTH 690 0
DWIDTH 10 0
BBX 8 12 1 0
BITMAP
08
08
10
00
81
81
81
89
89
89
99
66
ENDCHAR
STARTCHAR 03D1
ENCODING 977
SWIDTH 552 0
DWIDTH 8 0
BBX 8 11 0 0
BITMAP
38
24
42
22
1F
C2
42
42
42
44
38
ENDCHAR
STARTCHAR 03D2
ENCODING 978
SWIDTH 552 0
DWIDTH 8 0
BBX 8 10 0 0
BITMAP
81
42
44
24
28
18
10
10
10
10
ENDCHAR
STARTCHAR 03D6
ENCODING 982
SWIDTH 759 0
DWIDTH 11 0
BBX 11 8 0 0
BITMAP
FFE0
2080
4040
4040
4440
4440
4440
3B80
ENDCHAR
STARTCHAR 0400
ENCODING 1024
SWIDTH 552 0
DWIDTH 8 0
BBX 6 13 1 0
BITMAP
40
20
00
FC
80
80
80
FC
80
80
80
80
FC
ENDCHAR
STARTCHAR 0401
ENCODING 1025
SWIDTH 552 0
DWIDTH 8 0
BBX 6 12 1 0
BITMAP
48
00
FC
80
80
80
FC
80
80
80
80
FC
ENDCHAR
STARTCHAR 0402
ENCODING 1026
SWIDTH 690 0
DWIDTH 10 0
BBX 9 10 0 0
BITMAP
FE00
2000
2000
2000
3F00
2080
2080
2080
2080
2300
ENDCHAR
STARTCHAR 0403
ENCODING 1027
SWIDTH 483 0
DWIDTH 7 0
BBX 6 13 1 0
BITMAP
08
10
00
FC
80
80
80
80
80
80
80
80
80
ENDCHAR
STARTCHAR 0404
ENCODING 1028
SWIDTH 621 0
DWIDTH 9 0
BBX 7 10 1 0
BITMAP
3E
40
80
80
FC
80
80
80
40
3E
ENDCHAR
STARTCHAR 0405
ENCODING 1029
SWIDTH 552 0
DWIDTH 8 0
BBX 6 10 1 0
BITMAP
7C
80
80
80
60
18
04
04
04
F8
ENDCHAR
STARTCHAR 0406
ENCODING 1030
SWIDTH 276 0
DWIDTH 4 0
BBX 1 10 1 0
BITMAP
80
80
80
80
80
80
80
80
80
80
ENDCHAR
STARTCHAR 0407
ENCODING 1031
SWIDTH 276 0
DWIDTH 4 0
BBX 4 12 0 0
BITMAP
90
00
40
40
40
40
40
40
40
40
40
40
ENDCHAR
STARTCHAR 0408
ENCODING 1032
SWIDTH 207 0
DWIDTH 3 0
BBX 3 13 -1 -3
BITMAP
20
20
20
20
20
20
20
20
20
20
20
20
C0
ENDCHAR
STARTCHAR 0409
ENCODING 1033
SWIDTH 897 0
DWIDTH 13 0
BBX 12 10 0 0
BITMAP
1E00
1100
1100
1100
21E0
2110
2110
2110
2110
C1E0
ENDCHAR
STARTCHAR 040A
ENCODING 1034
SWIDTH 897 0
DWIDTH 13 0
BBX 11 10 1 0
BITMAP
8200
8200
8200
8200
FFC0
8220
8220
8220
8220
83C0
ENDCHAR
STARTCHAR 040B
ENCODING 1035
SWIDTH 690 0
DWIDTH 10 0
BBX 9 10 0 0
BITMAP
FE00
2000
2000
2000
3F00
2080
2080
2080
2080
2080
ENDCHAR
STARTCHAR 040C
ENCODING 1036
SWIDTH 552 0
DWIDTH 8 0
BBX 7 13 1 0
BITMAP
08
10
00
84
88
90
A0
C0
A0
90
88
84
82
ENDCHAR
STARTCHAR 040D
ENCODING 1037
SWIDTH 690 0
DWIDTH 10 0
BBX 8 13 1 0
BITMAP
10
08
00
81
83
85
89
89
91
91
A1
C1
81
ENDCHAR
STARTCHAR 040E
ENCODING 1038
SWIDTH 552 0
DWIDTH 8 0
BBX 8 13 0 0
BITMAP
24
3C
00
81
42
42
22
24
14
18
08
10
60
ENDCHAR
STARTCHAR 040F
ENCODING 1039
SWIDTH 690 0
DWIDTH 10 0
BBX 8 13 1 -3
BITMAP
81
81
81
81
81
81
81
81
81
FF
08
08
08
ENDCHAR
STARTCHAR 0410
ENCODING 1040
SWIDTH 552 0
DWIDTH 8 0
BBX 8 10 0 0
BITMAP
08
18
18
24
24
24
7E
42
81
81
ENDCHAR
STARTCHAR 0411
ENCODING 1041
SWIDTH 552 0
DWIDTH 8 0
BBX 6 10 1 0
BITMAP
FC
80
80
80
F8
84
84
84
84
F8
ENDCHAR
STARTCHAR 0412
ENCODING 1042
SWIDTH 621 0
DWIDTH 9 0
BBX 7 10 1 0
BITMAP
FC
82
82
82
FC
82
82
82
82
FC
ENDCHAR
STARTCHAR 0413
ENCODING 1043
SWIDTH 483 0
DWIDTH 7 0
BBX 6 10 1 0
BITMAP
FC
80
80
80
80
80
80
80
80
80
ENDCHAR
STARTCHAR 0414
ENCODING 1044
SWIDTH 621 0
DWIDTH 9 0
BBX 9 13 0 -3
BITMAP
1F00
1100
1100
1100
2100
2100
2100
2100
4100
FF80
8080
8080
8080
ENDCHAR
STARTCHAR 0415
ENCODING 1045
SWIDTH 552 0
DWIDTH 8 0
BBX 6 10 1 0
BITMAP
FC
80
80
80
FC
80
80
80
80
FC
ENDCHAR
STARTCHAR 0416
ENCODING 1046
SWIDTH 759 0
DWIDTH 11 0
BBX 11 10 0 0
BITMAP
4440
4440
2480
1500
0E00
0E00
1500
2480
4440
8420
ENDCHAR
STARTCHAR 0417
ENCODING 1047
SWIDTH 552 0
DWIDTH 8 0
BBX 6 10 1 0
BITMAP
F8
04
04
04
78
04
04
04
04
F8
ENDCHAR
STARTCHAR 0418
ENCODING 1048
SWIDTH 690 0
DWIDTH 10 0
BBX 8 10 1 0
BITMAP
81
83
85
89
89
91
91
A1
C1
81
ENDCHAR
STARTCHAR 0419
ENCODING 1049
SWIDTH 690 0
DWIDTH 10 0
BBX 8 13 1 0
BITMAP
24
3C
00
81
83
85
89
89
91
91
A1
C1
81
ENDCHAR
STARTCHAR 041A
ENCODING 1050
SWIDTH 552 0
DWIDTH 8 0
BBX 7 10 1 0
BITMAP
84
88
90
A0
C0
A0
90
88
84
82
ENDCHAR
STARTCHAR 041B
ENCODING 1051
SWIDTH 690 0
DWIDTH 10 0
BBX 9 10 0 0
BITMAP
1F80
1080
1080
1080
1080
2080
2080
2080
2080
C080
ENDCHAR
STARTCHAR 041C
ENCODING 1052
SWIDTH 828 0
DWIDTH 12 0
BBX 10 10 1 0
BITMAP
C0C0
C0C0
A140
A140
A140
9240
9240
8C40
8C40
8840
ENDCHAR
STARTCHAR 041D
ENCODING 1053
SWIDTH 690 0
DWIDTH 10 0
BBX 8 10 1 0
BITMAP
81
81
81
81
FF
81
81
81
81
81
ENDCHAR
STARTCHAR 041E
ENCODING 1054
SWIDTH 759 0
DWIDTH 11 0
BBX 9 10 1 0
BITMAP
3E00
4100
8080
8080
8080
8080
8080
8080
4100
3E00
ENDCHAR
STARTCHAR 041F
ENCODING 1055
SWIDTH 690 0
DWIDTH 10 0
BBX 8 10 1 0
BITMAP
FF
81
81
81
81
81
81
81
81
81
ENDCHAR
STARTCHAR 0420
ENCODING 1056
SWIDTH 552 0
DWIDTH 8 0
BBX 6 10 1 0
BITMAP
F8
84
84
84
8C
F0
80
80
80
80
ENDCHAR
STARTCHAR 0421
ENCODING 1057
SWIDTH 621 0
DWIDTH 9 0
BBX 7 10 1 0
BITMAP
3E
40
80
80
80
80
80
80
40
3E
ENDCHAR
STARTCHAR 0422
ENCODING 1058
SWIDTH 483 0
DWIDTH 7 0
BBX 7 10 0 0
BITMAP
FE
10
10
10
10
10
10
10
10
10
ENDCHAR
STARTCHAR 0423
ENCODING 1059
SWIDTH 552 0
DWIDTH 8 0
BBX 8 10 0 0
BITMAP
81
42
42
22
24
14
18
08
10
60
ENDCHAR
STARTCHAR 0424
ENCODING 1060
SWIDTH 759 0
DWIDTH 11 0
BBX 9 10 1 0
BITMAP
0800
3F00
C880
8880
8880
8880
8880
C980
3E00
0800
ENDCHAR
STARTCHAR 0425
ENCODING 1061
SWIDTH 552 0
DWIDTH 8 0
BBX 8 10 0 0
BITMAP
41
42
24
18
18
18
24
24
42
81
ENDCHAR
STARTCHAR 0426
ENCODING 1062
SWIDTH 690 0
DWIDTH 10 0
BBX 9 13 1 -3
BITMAP
8100
8100
8100
8100
8100
8100
8100
8100
8100
FF80
0080
0080
0080
ENDCHAR
STARTCHAR 0427
ENCODING 1063
SWIDTH 621 0
DWIDTH 9 0
BBX 7 10 1 0
BITMAP
82
82
82
82
82
7E
02
02
02
02
ENDCHAR
STARTCHAR 0428
ENCODING 1064
SWIDTH 966 0
DWIDTH 14 0
BBX 12 10 1 0
BITMAP
8210
8210
8210
8210
8210
8210
8210
8210
8210
FFF0
ENDCHAR
STARTCHAR 0429
ENCODING 1065
SWIDTH 966 0
DWIDTH 14 0
BBX 13 13 1 -3
BITMAP
8410
8410
8410
8410
8410
8410
8410
8410
8410
FFF8
0008
0008
0008
ENDCHAR
STARTCHAR 042A
ENCODING 1066
SWIDTH 621 0
DWIDTH 9 0
BBX 8 10 0 0
BITMAP
E0
20
20
20
3E
21
21
21
21
3E
ENDCHAR
STARTCHAR 042B
ENCODING 1067
SWIDTH 759 0
DWIDTH 11 0
BBX 9 10 1 0
BITMAP
8080
8080
8080
8080
F880
8480
8480
8480
8480
F880
ENDCHAR
STARTCHAR 042C
ENCODING 1068
SWIDTH 552 0
DWIDTH 8 0
BBX 6 10 1 0
BITMAP
80
80
80
80
F8
84
84
84
84
F8
ENDCHAR
STARTCHAR 042D
ENCODING 1069
SWIDTH 621 0
DWIDTH 9 0
BBX 7 10 1 0
BITMAP
F8
04
02
02
7E
02
02
02
04
F8
ENDCHAR
STARTCHAR 042E
ENCODING 1070
SWIDTH 966 0
DWIDTH 14 0
BBX 12 10 1 0
BITMAP
83C0
8420
8810
8810
F810
8810
8810
8810
8420
83C0
ENDCHAR
STARTCHAR 042F
ENCODING 1071
SWIDTH 552 0
DWIDTH 8 0
BBX 7 10 0 0
BITMAP
3E
42
42
42
42
3E
22
22
42
82
ENDCHAR
STARTCHAR 0430
ENCODING 1072
SWIDTH 483 0
DWIDTH 7 0
BBX 5 8 1 0
BITMAP
F0
08
08
78
88
88
88
F8
ENDCHAR
STARTCHAR 0431
ENCODING 1073
SWIDTH 552 0
DWIDTH 8 0
BBX 6 11 1 0
BITMAP
1C
60
80
80
B8
C4
84
84
84
84
78
ENDCHAR
STARTCHAR 0432
ENCODING 1074
SWIDTH 552 0
DWIDTH 8 0
BBX 6 8 1 0
BITMAP
F8
84
84
F8
84
84
84
F8
ENDCHAR
STARTCHAR 0433
ENCODING 1075
SWIDTH 414 0
DWIDTH 6 0
BBX 5 8 1 0
BITMAP
F8
80
80
80
80
80
80
80
ENDCHAR
STARTCHAR 0434
ENCODING 1076
SWIDTH 552 0
DWIDTH 8 0
BBX 8 11 0 -3
BITMAP
1E
12
22
22
22
22
42
FF
81
81
81
ENDCHAR
STARTCHAR 0435
ENCODING 1077
SWIDTH 552 0
DWIDTH 8 0
BBX 6 8 1 0
BITMAP
78
84
84
FC
80
80
80
7C
ENDCHAR
STARTCHAR 0436
ENCODING 1078
SWIDTH 621 0
DWIDTH 9 0
BBX 9 8 0 0
BITMAP
4900
4900
2A00
1C00
1C00
2A00
4900
8880
ENDCHAR
STARTCHAR 0437
ENCODING 1079
SWIDTH 414 0
DWIDTH 6 0
BBX 5 8 0 0
BITMAP
78
08
08
30
08
08
08
F0
ENDCHAR
STARTCHAR 0438
ENCODING 1080
SWIDTH 552 0
DWIDTH 8 0
BBX 6 8 1 0
BITMAP
84
8C
94
94
A4
A4
C4
84
ENDCHAR
STARTCHAR 0439
ENCODING 1081
SWIDTH 552 0
DWIDTH 8 0
BBX 6 11 1 0
BITMAP
48
78
00
84
8C
94
94
A4
A4
C4
84
ENDCHAR
STARTCHAR 043A
ENCODING 1082
SWIDTH 414 0
DWIDTH 6 0
BBX 5 8 1 0
BITMAP
90
90
A0
C0
C0
A0
90
88
ENDCHAR
STARTCHAR 043B
ENCODING 1083
SWIDTH 552 0
DWIDTH 8 0
BBX 7 8 0 0
BITMAP
1E
22
22
22
22
22
42
C2
ENDCHAR
STARTCHAR 043C
ENCODING 1084
SWIDTH 621 0
DWIDTH 9 0
BBX 7 8 1 0
BITMAP
82
C6
C6
C6
AA
AA
AA
92
ENDCHAR
STARTCHAR 043D
ENCODING 1085
SWIDTH 621 0
DWIDTH 9 0
BBX 7 8 1 0
BITMAP
82
82
82
FE
82
82
82
82
ENDCHAR
STARTCHAR 043E
ENCODING 1086
SWIDTH 552 0
DWIDTH 8 0
BBX 6 8 1 0
BITMAP
78
84
84
84
84
84
84
78
ENDCHAR
STARTCHAR 043F
ENCODING 1087
SWIDTH 552 0
DWIDTH 8 0
BBX 6 8 1 0
BITMAP
FC
84
84
84
84
84
84
84
ENDCHAR
STARTCHAR 0440
ENCODING 1088
SWIDTH 552 0
DWIDTH 8 0
BBX 6 11 1 -3
BITMAP
F8
84
84
84
84
84
84
F8
80
80
80
ENDCHAR
STARTCHAR 0441
ENCODING 1089
SWIDTH 483 0
DWIDTH 7 0
BBX 5 8 1 0
BITMAP
78
80
80
80
80
80
80
78
ENDCHAR
STARTCHAR 0442
ENCODING 1090
SWIDTH 414 0
DWIDTH 6 0
BBX 6 8 0 0
BITMAP
FC
10
10
10
10
10
10
10
ENDCHAR
STARTCHAR 0443
ENCODING 1091
SWIDTH 414 0
DWIDTH 6 0
BBX 6 11 0 -3
BITMAP
84
84
48
48
48
30
30
20
20
20
C0
ENDCHAR
STARTCHAR 0444
ENCODING 1092
SWIDTH 621 0
DWIDTH 9 0
BBX 7 14 1 -3
BITMAP
10
10
10
7C
92
92
92
92
92
92
7C
10
10
10
ENDCHAR
STARTCHAR 0445
ENCODING 1093
SWIDTH 483 0
DWIDTH 7 0
BBX 5 8 1 0
BITMAP
88
88
50
20
20
50
88
88
ENDCHAR
STARTCHAR 0446
ENCODING 1094
SWIDTH 552 0
DWIDTH 8 0
BBX 7 11 1 -3
BITMAP
84
84
84
84
84
84
84
FE
02
02
02
ENDCHAR
STARTCHAR 0447
ENCODING 1095
SWIDTH 552 0
DWIDTH 8 0
BBX 6 8 1 0
BITMAP
84
84
84
84
7C
04
04
04
ENDCHAR
STARTCHAR 0448
ENCODING 1096
SWIDTH 828 0
DWIDTH 12 0
BBX 10 8 1 0
BITMAP
8840
8840
8840
8840
8840
8840
8840
FFC0
ENDCHAR
STARTCHAR 0449
ENCODING 1097
SWIDTH 828 0
DWIDTH 12 0
BBX 11 11 1 -3
BITMAP
8840
8840
8840
8840
8840
8840
8840
FFE0
0020
0020
0020
ENDCHAR
STARTCHAR 044A
ENCODING 1098
SWIDTH 621 0
DWIDTH 9 0
BBX 8 8 0 0
BITMAP
E0
20
20
1E
21
21
21
1E
ENDCHAR
STARTCHAR 044B
ENCODING 1099
SWIDTH 690 0
DWIDTH 10 0
BBX 8 8 1 0
BITMAP
81
81
81
F9
85
85
85
F9
ENDCHAR
STARTCHAR 044C
ENCODING 1100
SWIDTH 552 0
DWIDTH 8 0
BBX 6 8 1 0
BITMAP
80
80
80
F8
84
84
84
F8
ENDCHAR
STARTCHAR 044D
ENCODING 1101
SWIDTH 483 0
DWIDTH 7 0
BBX 6 8 0 0
BITMAP
78
04
04
7C
04
04
04
F8
ENDCHAR
STARTCHAR 044E
ENCODING 1102
SWIDTH 759 0
DWIDTH 11 0
BBX 9 8 1 0
BITMAP
8F00
8880
9080
F080
9080
9080
8880
8700
ENDCHAR
STARTCHAR 044F
ENCODING 1103
SWIDTH 483 0
DWIDTH 7 0
BBX 6 8 0 0
BITMAP
7C
44
84
44
3C
24
44
84
ENDCHAR
STARTCHAR 0450
ENCODING 1104
SWIDTH 552 0
DWIDTH 8 0
BBX 6 11 1 0
BITMAP
40
20
00
78
84
84
FC
80
80
80
7C
ENDCHAR
STARTCHAR 0451
ENCODING 1105
SWIDTH 552 0
DWIDTH 8 0
BBX 6 10 1 0
BITMAP
48
00
78
84
84
FC
80
80
80
7C
ENDCHAR
STARTCHAR 0452
ENCODING 1106
SWIDTH 552 0
DWIDTH 8 0
BBX 7 14 0 -3
BITMAP
40
F8
40
7C
42
42
42
42
42
42
42
02
02
0C
ENDCHAR
STARTCHAR 0453
ENCODING 1107
SWIDTH 414 0
DWIDTH 6 0
BBX 5 11 1 0
BITMAP
10
20
00
F8
80
80
80
80
80
80
80
ENDCHAR
STARTCHAR 0454
ENCODING 1108
SWIDTH 483 0
DWIDTH 7 0
BBX 5 8 1 0
BITMAP
78
80
80
F8
80
80
80
78
ENDCHAR
STARTCHAR 0455
ENCODING 1109
SWIDTH 483 0
DWIDTH 7 0
BBX 5 8 1 0
BITMAP
78
80
80
60
18
08
08
F0
ENDCHAR
STARTCHAR 0456
ENCODING 1110
SWIDTH 207 0
DWIDTH 3 0
BBX 1 10 1 0
BITMAP
80
00
80
80
80
80
80
80
80
80
ENDCHAR
STARTCHAR 0457
ENCODING 1111
SWIDTH 207 0
DWIDTH 3 0
BBX 4 10 0 0
BITMAP
90
00
40
40
40
40
40
40
40
40
ENDCHAR
STARTCHAR 0458
ENCODING 1112
SWIDTH 207 0
DWIDTH 3 0
BBX 3 13 -1 -3
BITMAP
20
00
20
20
20
20
20
20
20
20
20
20
C0
ENDCHAR
STARTCHAR 0459
ENCODING 1113
SWIDTH 759 0
DWIDTH 11 0
BBX 10 8 0 0
BITMAP
3C00
2400
2400
27C0
2440
2440
4440
C780
ENDCHAR
STARTCHAR 045A
ENCODING 1114
SWIDTH 828 0
DWIDTH 12 0
BBX 10 8 1 0
BITMAP
8400
8400
8400
FF80
8440
8440
8440
8780
ENDCHAR
STARTCHAR 045B
ENCODING 1115
SWIDTH 552 0
DWIDTH 8 0
BBX 7 11 0 0
BITMAP
40
F8
40
7C
42
42
42
42
42
42
42
ENDCHAR
STARTCHAR 045C
ENCODING 1116
SWIDTH 414 0
DWIDTH 6 0
BBX 5 11 1 0
BITMAP
10
20
00
90
90
A0
C0
C0
A0
90
88
ENDCHAR
STARTCHAR 045D
ENCODING 1117
SWIDTH 552 0
DWIDTH 8 0
BBX 6 11 1 0
BITMAP
20
10
00
84
8C
94
94
A4
A4
C4
84
ENDCHAR
STARTCHAR 045E
ENCODING 1118
SWIDTH 414 0
DWIDTH 6 0
BBX 6 14 0 -3
BITMAP
48
78
00
84
84
48
48
48
30
30
20
20
20
C0
ENDCHAR
STARTCHAR 045F
ENCODING 1119
SWIDTH 552 0
DWIDTH 8 0
BBX 6 11 1 -3
BITMAP
84
84
84
84
84
84
84
FC
10
10
10
ENDCHAR
STARTCHAR 0460
ENCODING 1120
SWIDTH 966 0
DWIDTH 14 0
BBX 12 10 1 0
BITMAP
39E0
4020
8010
8010
8010
8410
8410
8410
4420
3FC0
ENDCHAR
STARTCHAR 0461
ENCODING 1121
SWIDTH 759 0
DWIDTH 11 0
BBX 10 8 0 0
BITMAP
8840
8840
4440
4440
4440
2A80
3280
1100
ENDCHAR
STARTCHAR 0462
ENCODING 1122
SWIDTH 621 0
DWIDTH 9 0
BBX 8 11 0 0
BITMAP
20
20
FC
20
20
3E
21
21
21
21
3E
ENDCHAR
STARTCHAR 0463
ENCODING 1123
SWIDTH 552 0
DWIDTH 8 0
BBX 7 10 0 0
BITMAP
40
40
F8
40
40
3E
42
42
42
3C
ENDCHAR
STARTCHAR 0464
ENCODING 1124
SWIDTH 897 0
DWIDTH 13 0
BBX 11 10 1 0
BITMAP
83E0
8400
8800
8800
FFC0
8800
8800
8400
8400
83E0
ENDCHAR
STARTCHAR 0465
ENCODING 1125
SWIDTH 690 0
DWIDTH 10 0
BBX 8 8 1 0
BITMAP
87
88
90
FF
90
90
88
87
ENDCHAR
STARTCHAR 0466
ENCODING 1126
SWIDTH 621 0
DWIDTH 9 0
BBX 9 10 0 0
BITMAP
0800
0800
1400
1400
3E00
2A00
4900
4900
4880
8880
ENDCHAR
STARTCHAR 0467
ENCODING 1127
SWIDTH 483 0
DWIDTH 7 0
BBX 7 8 0 0
BITMAP
10
28
28
28
7C
54
54
92
ENDCHAR
STARTCHAR 0468
ENCODING 1128
SWIDTH 828 0
DWIDTH 12 0
BBX 11 10 1 0
BITMAP
8200
8200
8500
8480
FF80
8A80
9240
9240
9220
A220
ENDCHAR
STARTCHAR 0469
ENCODING 1129
SWIDTH 690 0
DWIDTH 10 0
BBX 9 8 1 0
BITMAP
8400
8C00
8A00
8A00
FF00
9500
A500
A480
ENDCHAR
STARTCHAR 046A
ENCODING 1130
SWIDTH 690 0
DWIDTH 10 0
BBX 10 10 0 0
BITMAP
7F80
2100
1200
0C00
3F00
4880
4880
4880
8840
8840
ENDCHAR
STARTCHAR 046B
ENCODING 1131
SWIDTH 552 0
DWIDTH 8 0
BBX 8 8 0 0
BITMAP
7E
24
18
3C
4A
4A
89
89
ENDCHAR
STARTCHAR 046C
ENCODING 1132
SWIDTH 897 0
DWIDTH 13 0
BBX 12 10 1 0
BITMAP
9FE0
8840
8480
8280
FFC0
8920
9120
9120
9110
9110
ENDCHAR
STARTCHAR 046D
ENCODING 1133
SWIDTH 759 0
DWIDTH 11 0
BBX 10 8 1 0
BITMAP
9F80
8900
8600
FF00
9480
A480
A440
A440
ENDCHAR
STARTCHAR 046E
ENCODING 1134
SWIDTH 552 0
DWIDTH 8 0
BBX 6 15 1 -3
BITMAP
48
30
F8
04
04
04
78
04
04
04
04
78
80
80
FC
ENDCHAR
STARTCHAR 046F
ENCODING 1135
SWIDTH 414 0
DWIDTH 6 0
BBX 5 12 0 -2
BITMAP
48
30
78
08
08
30
08
08
18
60
80
78
ENDCHAR
STARTCHAR 0470
ENCODING 1136
SWIDTH 759 0
DWIDTH 11 0
BBX 9 10 1 0
BITMAP
8880
8880
8880
8880
8880
8880
7F00
0800
0800
0800
ENDCHAR
STARTCHAR 0471
ENCODING 1137
SWIDTH 690 0
DWIDTH 10 0
BBX 8 14 1 -3
BITMAP
08
08
08
89
89
89
89
89
89
4A
3C
08
08
08
ENDCHAR
STARTCHAR 0472
ENCODING 1138
SWIDTH 759 0
DWIDTH 11 0
BBX 9 10 1 0
BITMAP
3E00
4100
8080
8080
FF80
8080
8080
8080
4100
3E00
ENDCHAR
STARTCHAR 0473
ENCODING 1139
SWIDTH 552 0
DWIDTH 8 0
BBX 6 8 1 0
BITMAP
78
84
84
FC
84
84
84
78
ENDCHAR
STARTCHAR 0474
ENCODING 1140
SWIDTH 552 0
DWIDTH 8 0
BBX 9 10 0 0
BITMAP
8180
8200
4200
4400
4400
2400
2400
1800
1800
1000
ENDCHAR
STARTCHAR 0475
ENCODING 1141
SWIDTH 483 0
DWIDTH 7 0
BBX 7 8 0 0
BITMAP
82
84
44
44
28
28
28
10
ENDCHAR
STARTCHAR 0476
ENCODING 1142
SWIDTH 552 0
DWIDTH 8 0
BBX 9 13 0 0
BITMAP
4800
2800
0000
8180
8200
4200
4400
4400
2400
2400
1800
1800
1000
ENDCHAR
STARTCHAR 0477
ENCODING 1143
SWIDTH 483 0
DWIDTH 7 0
BBX 7 11 0 0
BITMAP
90
50
00
82
84
44
44
28
28
28
10
ENDCHAR
STARTCHAR 0478
ENCODING 1144
SWIDTH 1104 0
DWIDTH 16 0
BBX 15 13 1 -3
BITMAP
3C00
4200
8142
8142
8144
8124
8128
8128
4218
3C10
0010
0010
0060
ENDCHAR
STARTCHAR 0479
ENCODING 1145
SWIDTH 966 0
DWIDTH 14 0
BBX 13 11 1 -3
BITMAP
7908
8508
8490
8490
8490
8460
8460
7840
0040
0040
0180
ENDCHAR
STARTCHAR 047A
ENCODING 1146
SWIDTH 759 0
DWIDTH 11 0
BBX 9 11 1 -1
BITMAP
3E00
4100
8080
8080
8080
8080
8080
8080
4100
3E00
0800
ENDCHAR
STARTCHAR 047B
ENCODING 1147
SWIDTH 552 0
DWIDTH 8 0
BBX 6 8 1 1
BITMAP
78
84
84
84
84
84
84
78
ENDCHAR
STARTCHAR 047C
ENCODING 1148
SWIDTH 966 0
DWIDTH 14 0
BBX 12 14 1 0
BITMAP
0E00
0980
0200
0200
39E0
4020
8010
8010
8010
8010
8010
8010
4020
3FC0
ENDCHAR
STARTCHAR 047D
ENCODING 1149
SWIDTH 759 0
DWIDTH 11 0
BBX 9 13 1 0
BITMAP
1800
2600
0800
0800
0000
7700
8080
8080
8080
8080
8080
8080
7F00
ENDCHAR
STARTCHAR 047E
ENCODING 1150
SWIDTH 966 0
DWIDTH 14 0
BBX 12 13 1 0
BITMAP
1F80
0000
0000
39E0
4020
8010
8010
8010
8410
8410
8410
4420
3FC0
ENDCHAR
STARTCHAR 047F
ENCODING 1151
SWIDTH 759 0
DWIDTH 11 0
BBX 10 11 0 0
BITMAP
1F00
0400
0000
8840
8840
4440
4440
4C40
2A80
3280
1100
ENDCHAR
STARTCHAR 0480
ENCODING 1152
SWIDTH 621 0
DWIDTH 9 0
BBX 7 13 1 -3
BITMAP
3E
40
80
80
80
80
80
80
40
3C
04
04
04
ENDCHAR
STARTCHAR 0481
ENCODING 1153
SWIDTH 483 0
DWIDTH 7 0
BBX 5 11 1 -3
BITMAP
38
40
80
80
80
80
C0
38
08
08
08
ENDCHAR
STARTCHAR 0482
ENCODING 1154
SWIDTH 552 0
DWIDTH 8 0
BBX 6 9 1 0
BITMAP
04
28
10
1C
20
E0
20
50
80
ENDCHAR
STARTCHAR 0483
ENCODING 1155
SWIDTH 552 0
DWIDTH 8 0
BBX 4 1 2 9
BITMAP
F0
ENDCHAR
STARTCHAR 0484
ENCODING 1156
SWIDTH 552 0
DWIDTH 8 0
BBX 5 2 2 9
BITMAP
30
C8
ENDCHAR
STARTCHAR 0485
ENCODING 1157
SWIDTH 552 0
DWIDTH 8 0
BBX 2 3 3 9
BITMAP
80
80
40
ENDCHAR
STARTCHAR 0486
ENCODING 1158
SWIDTH 552 0
DWIDTH 8 0
BBX 2 3 3 9
BITMAP
40
40
80
ENDCHAR
STARTCHAR 0488
ENCODING 1160
SWIDTH 966 0
DWIDTH 14 0
BBX 14 12 0 -2
BITMAP
0300
0480
3030
4848
0000
6018
A014
0000
3030
4848
0300
0480
ENDCHAR
STARTCHAR 0489
ENCODING 1161
SWIDTH 897 0
DWIDTH 13 0
BBX 11 13 1 -3
BITMAP
0400
0400
4040
4080
2000
0000
C060
0000
0000
2080
4040
0400
0400
ENDCHAR
STARTCHAR 048A
ENCODING 1162
SWIDTH 690 0
DWIDTH 10 0
BBX 8 16 1 -3
BITMAP
24
3C
00
81
83
85
89
89
91
91
A1
C1
81
01
01
01
ENDCHAR
STARTCHAR 048B
ENCODING 1163
SWIDTH 552 0
DWIDTH 8 0
BBX 7 14 1 -3
BITMAP
48
70
00
84
8C
94
94
A4
A4
C4
86
04
04
04
ENDCHAR
STARTCHAR 048C
ENCODING 1164
SWIDTH 552 0
DWIDTH 8 0
BBX 7 10 0 0
BITMAP
40
F8
40
40
7C
42
42
42
42
7C
ENDCHAR
STARTCHAR 048D
ENCODING 1165
SWIDTH 552 0
DWIDTH 8 0
BBX 7 11 0 0
BITMAP
40
40
F0
40
40
40
7C
42
42
42
7C
ENDCHAR
STARTCHAR 048E
ENCODING 1166
SWIDTH 552 0
DWIDTH 8 0
BBX 6 10 1 0
BITMAP
F8
84
84
84
94
F8
80
80
80
80
ENDCHAR
STARTCHAR 048F
ENCODING 1167
SWIDTH 552 0
DWIDTH 8 0
BBX 6 11 1 -3
BITMAP
F8
84
84
84
84
84
8C
F8
84
80
80
ENDCHAR
STARTCHAR 0490
ENCODING 1168
SWIDTH 483 0
DWIDTH 7 0
BBX 6 12 1 0
BITMAP
04
04
FC
80
80
80
80
80
80
80
80
80
ENDCHAR
STARTCHAR 0491
ENCODING 1169
SWIDTH 414 0
DWIDTH 6 0
BBX 5 10 1 0
BITMAP
08
08
F8
80
80
80
80
80
80
80
ENDCHAR
STARTCHAR 0492
ENCODING 1170
SWIDTH 483 0
DWIDTH 7 0
BBX 7 10 0 0
BITMAP
7E
40
40
40
F8
40
40
40
40
40
ENDCHAR
STARTCHAR 0493
ENCODING 1171
SWIDTH 414 0
DWIDTH 6 0
BBX 6 8 0 0
BITMAP
7C
40
40
F8
40
40
40
40
ENDCHAR
STARTCHAR 0494
ENCODING 1172
SWIDTH 621 0
DWIDTH 9 0
BBX 7 13 1 -3
BITMAP
FC
80
80
80
F8
84
82
82
82
82
02
02
3C
ENDCHAR
STARTCHAR 0495
ENCODING 1173
SWIDTH 483 0
DWIDTH 7 0
BBX 6 11 1 -3
BITMAP
F8
80
80
F0
88
84
84
84
04
08
70
ENDCHAR
STARTCHAR 0496
ENCODING 1174
SWIDTH 759 0
DWIDTH 11 0
BBX 11 13 0 -3
BITMAP
4440
4480
2480
1500
0E00
0E00
1500
2480
4440
8460
0020
0020
0020
ENDCHAR
STARTCHAR 0497
ENCODING 1175
SWIDTH 690 0
DWIDTH 10 0
BBX 10 11 0 -3
BITMAP
4880
2900
2A00
1C00
1A00
2A00
4900
88C0
0040
0040
0040
ENDCHAR
STARTCHAR 0498
ENCODING 1176
SWIDTH 552 0
DWIDTH 8 0
BBX 6 13 1 -3
BITMAP
F8
04
04
04
78
04
04
04
04
F8
20
10
60
ENDCHAR
STARTCHAR 0499
ENCODING 1177
SWIDTH 414 0
DWIDTH 6 0
BBX 5 11 0 -3
BITMAP
78
08
08
30
08
08
08
F0
10
08
30
ENDCHAR
STARTCHAR 049A
ENCODING 1178
SWIDTH 621 0
DWIDTH 9 0
BBX 8 13 1 -3
BITMAP
82
84
88
90
A0
D0
88
84
84
83
01
01
01
ENDCHAR
STARTCHAR 049B
ENCODING 1179
SWIDTH 483 0
DWIDTH 7 0
BBX 6 11 1 -3
BITMAP
88
90
A0
C0
C0
A0
90
8C
04
04
04
ENDCHAR
STARTCHAR 049C
ENCODING 1180
SWIDTH 552 0
DWIDTH 8 0
BBX 7 10 1 0
BITMAP
84
84
A8
B0
A0
F0
A8
A8
84
82
ENDCHAR
STARTCHAR 049D
ENCODING 1181
SWIDTH 414 0
DWIDTH 6 0
BBX 5 8 1 0
BITMAP
90
D0
A0
C0
C0
A0
D0
88
ENDCHAR
STARTCHAR 049E
ENCODING 1182
SWIDTH 552 0
DWIDTH 8 0
BBX 8 10 0 0
BITMAP
42
F2
44
48
50
68
44
44
42
41
ENDCHAR
STARTCHAR 049F
ENCODING 1183
SWIDTH 483 0
DWIDTH 7 0
BBX 7 11 0 0
BITMAP
40
F8
40
44
44
48
50
68
48
44
42
ENDCHAR
STARTCHAR 04A0
ENCODING 1184
SWIDTH 621 0
DWIDTH 9 0
BBX 9 10 0 0
BITMAP
E100
2100
2200
2400
2800
3400
2200
2200
2100
2080
ENDCHAR
STARTCHAR 04A1
ENCODING 1185
SWIDTH 552 0
DWIDTH 8 0
BBX 8 8 0 0
BITMAP
E2
24
28
38
28
24
22
21
ENDCHAR
STARTCHAR 04A2
ENCODING 1186
SWIDTH 690 0
DWIDTH 10 0
BBX 8 13 1 -3
BITMAP
81
81
81
81
FF
81
81
81
81
81
01
01
01
ENDCHAR
STARTCHAR 04A3
ENCODING 1187
SWIDTH 621 0
DWIDTH 9 0
BBX 8 11 1 -3
BITMAP
82
82
82
FE
82
82
82
83
01
01
01
ENDCHAR
STARTCHAR 04A4
ENCODING 1188
SWIDTH 759 0
DWIDTH 11 0
BBX 10 10 1 0
BITMAP
81C0
8100
8100
8100
FF00
8100
8100
8100
8100
8100
ENDCHAR
STARTCHAR 04A5
ENCODING 1189
SWIDTH 690 0
DWIDTH 10 0
BBX 9 8 1 0
BITMAP
8380
8200
8200
FC00
8200
8200
8200
8200
ENDCHAR
STARTCHAR 04A6
ENCODING 1190
SWIDTH 1035 0
DWIDTH 15 0
BBX 13 13 1 -3
BITMAP
FE00
8200
8200
8200
81E0
8210
8208
8208
8208
8208
0008
0008
00F0
ENDCHAR
STARTCHAR 04A7
ENCODING 1191
SWIDTH 828 0
DWIDTH 12 0
BBX 11 11 1 -3
BITMAP
FC00
8400
8400
8780
8440
8440
8420
8420
0020
0040
0380
ENDCHAR
STARTCHAR 04A8
ENCODING 1192
SWIDTH 759 0
DWIDTH 11 0
BBX 9 11 1 -1
BITMAP
3C00
4000
8700
8880
8880
8880
8880
8880
4500
3E00
0180
ENDCHAR
STARTCHAR 04A9
ENCODING 1193
SWIDTH 552 0
DWIDTH 8 0
BBX 7 9 1 -1
BITMAP
70
80
9C
94
94
94
94
78
06
ENDCHAR
STARTCHAR 04AA
ENCODING 1194
SWIDTH 621 0
DWIDTH 9 0
BBX 7 13 1 -3
BITMAP
3E
40
80
80
80
80
80
80
40
3E
08
04
18
ENDCHAR
STARTCHAR 04AB
ENCODING 1195
SWIDTH 483 0
DWIDTH 7 0
BBX 5 11 1 -3
BITMAP
78
80
80
80
80
80
80
78
10
08
30
ENDCHAR
STARTCHAR 04AC
ENCODING 1196
SWIDTH 483 0
DWIDTH 7 0
BBX 7 13 0 -3
BITMAP
FE
10
10
10
10
10
10
10
10
18
08
08
08
ENDCHAR
STARTCHAR 04AD
ENCODING 1197
SWIDTH 414 0
DWIDTH 6 0
BBX 6 11 0 -3
BITMAP
FC
10
10
10
10
10
10
10
10
10
10
ENDCHAR
STARTCHAR 04AE
ENCODING 1198
SWIDTH 483 0
DWIDTH 7 0
BBX 7 10 0 0
BITMAP
82
44
44
28
28
10
10
10
10
10
ENDCHAR
STARTCHAR 04AF
ENCODING 1199
SWIDTH 414 0
DWIDTH 6 0
BBX 6 11 0 -3
BITMAP
84
84
48
48
48
30
30
10
10
10
10
ENDCHAR
STARTCHAR 04B0
ENCODING 1200
SWIDTH 483 0
DWIDTH 7 0
BBX 7 10 0 0
BITMAP
82
44
44
28
28
10
10
7C
10
10
ENDCHAR
STARTCHAR 04B1
ENCODING 1201
SWIDTH 414 0
DWIDTH 6 0
BBX 6 11 0 -3
BITMAP
84
84
48
48
48
30
30
10
78
10
10
ENDCHAR
STARTCHAR 04B2
ENCODING 1202
SWIDTH 552 0
DWIDTH 8 0
BBX 8 13 0 -3
BITMAP
42
44
24
28
10
18
28
44
42
83
01
01
01
ENDCHAR
STARTCHAR 04B3
ENCODING 1203
SWIDTH 483 0
DWIDTH 7 0
BBX 6 11 1 -3
BITMAP
88
88
50
20
20
50
88
8C
04
04
04
ENDCHAR
STARTCHAR 04B4
ENCODING 1204
SWIDTH 828 0
DWIDTH 12 0
BBX 12 13 0 -3
BITMAP
FF20
1020
1020
1020
1020
1020
1020
1020
1020
1FF0
0010
0010
0010
ENDCHAR
STARTCHAR 04B5
ENCODING 1205
SWIDTH 690 0
DWIDTH 10 0
BBX 10 11 0 -3
BITMAP
FC80
2080
2080
2080
2080
2080
2080
1FC0
0040
0040
0040
ENDCHAR
STARTCHAR 04B6
ENCODING 1206
SWIDTH 621 0
DWIDTH 9 0
BBX 7 13 1 -3
BITMAP
82
82
82
82
82
7E
02
02
02
02
02
02
02
ENDCHAR
STARTCHAR 04B7
ENCODING 1207
SWIDTH 552 0
DWIDTH 8 0
BBX 7 11 1 -3
BITMAP
84
84
84
84
7C
04
04
06
02
02
02
ENDCHAR
STARTCHAR 04B8
ENCODING 1208
SWIDTH 621 0
DWIDTH 9 0
BBX 7 10 1 0
BITMAP
82
82
82
92
92
7E
12
12
02
02
ENDCHAR
STARTCHAR 04B9
ENCODING 1209
SWIDTH 552 0
DWIDTH 8 0
BBX 6 8 1 0
BITMAP
84
84
A4
A4
7C
24
24
04
ENDCHAR
STARTCHAR 04BA
ENCODING 1210
SWIDTH 621 0
DWIDTH 9 0
BBX 7 10 1 0
BITMAP
80
80
80
80
FC
82
82
82
82
82
ENDCHAR
STARTCHAR 04BB
ENCODING 1211
SWIDTH 552 0
DWIDTH 8 0
BBX 6 8 1 0
BITMAP
80
80
80
F8
84
84
84
84
ENDCHAR
STARTCHAR 04BC
ENCODING 1212
SWIDTH 759 0
DWIDTH 11 0
BBX 10 10 0 0
BITMAP
0F80
1040
A040
A040
7FC0
2000
2000
1000
1000
0FC0
ENDCHAR
STARTCHAR 04BD
ENCODING 1213
SWIDTH 621 0
DWIDTH 9 0
BBX 8 8 0 0
BITMAP
1E
A1
A1
7F
20
20
10
0F
ENDCHAR
STARTCHAR 04BE
ENCODING 1214
SWIDTH 759 0
DWIDTH 11 0
BBX 10 13 0 -3
BITMAP
0F80
1040
A040
A040
7FC0
2000
2000
1000
1000
0FC0
0200
0200
0200
ENDCHAR
STARTCHAR 04BF
ENCODING 1215
SWIDTH 621 0
DWIDTH 9 0
BBX 8 11 0 -3
BITMAP
1E
A1
A1
7F
20
20
10
0F
04
04
04
ENDCHAR
STARTCHAR 04C0
ENCODING 1216
SWIDTH 276 0
DWIDTH 4 0
BBX 1 10 1 0
BITMAP
80
80
80
80
80
80
80
80
80
80
ENDCHAR
STARTCHAR 04C1
ENCODING 1217
SWIDTH 759 0
DWIDTH 11 0
BBX 11 13 0 0
BITMAP
1200
1E00
0000
4440
4440
2480
1500
0E00
0E00
1500
2480
4440
8420
ENDCHAR
STARTCHAR 04C2
ENCODING 1218
SWIDTH 621 0
DWIDTH 9 0
BBX 9 11 0 0
BITMAP
1200
1E00
0000
4900
4900
2A00
1C00
1C00
2A00
4900
8880
ENDCHAR
STARTCHAR 04C3
ENCODING 1219
SWIDTH 621 0
DWIDTH 9 0
BBX 7 13 1 -3
BITMAP
84
88
88
90
A0
F8
86
82
82
82
02
02
3C
ENDCHAR
STARTCHAR 04C4
ENCODING 1220
SWIDTH 483 0
DWIDTH 7 0
BBX 6 11 1 -3
BITMAP
88
90
A0
C0
F0
88
84
84
04
08
70
ENDCHAR
STARTCHAR 04C5
ENCODING 1221
SWIDTH 690 0
DWIDTH 10 0
BBX 10 13 0 -3
BITMAP
1F80
1080
1080
1080
1080
2080
2080
2080
2080
C0C0
0080
0080
0080
ENDCHAR
STARTCHAR 04C6
ENCODING 1222
SWIDTH 552 0
DWIDTH 8 0
BBX 8 11 0 -3
BITMAP
1E
22
22
22
22
22
42
C3
01
02
02
ENDCHAR
STARTCHAR 04C7
ENCODING 1223
SWIDTH 690 0
DWIDTH 10 0
BBX 8 13 1 -3
BITMAP
81
81
81
81
FF
81
81
81
81
81
01
02
3C
ENDCHAR
STARTCHAR 04C8
ENCODING 1224
SWIDTH 621 0
DWIDTH 9 0
BBX 7 11 1 -3
BITMAP
82
82
82
FE
82
82
82
82
02
02
1C
ENDCHAR
STARTCHAR 04C9
ENCODING 1225
SWIDTH 690 0
DWIDTH 10 0
BBX 9 13 1 -3
BITMAP
8100
8100
8100
8100
FF00
8100
8100
8100
8100
8180
0100
0100
0100
ENDCHAR
STARTCHAR 04CA
ENCODING 1226
SWIDTH 621 0
DWIDTH 9 0
BBX 8 11 1 -3
BITMAP
82
82
82
FE
82
82
82
83
01
02
02
ENDCHAR
STARTCHAR 04CB
ENCODING 1227
SWIDTH 621 0
DWIDTH 9 0
BBX 7 13 1 -3
BITMAP
82
82
82
82
82
7E
02
02
02
06
04
04
04
ENDCHAR
STARTCHAR 04CC
ENCODING 1228
SWIDTH 552 0
DWIDTH 8 0
BBX 6 11 1 -3
BITMAP
84
84
84
84
7C
04
04
0C
08
08
08
ENDCHAR
STARTCHAR 04CD
ENCODING 1229
SWIDTH 828 0
DWIDTH 12 0
BBX 11 13 1 -3
BITMAP
C0C0
C0C0
A140
A140
A140
9240
9240
8C40
8C40
8860
0040
0040
0040
ENDCHAR
STARTCHAR 04CE
ENCODING 1230
SWIDTH 621 0
DWIDTH 9 0
BBX 8 11 1 -3
BITMAP
82
C6
C6
C6
AA
AA
AA
93
01
02
02
ENDCHAR
STARTCHAR 04CF
ENCODING 1231
SWIDTH 276 0
DWIDTH 4 0
BBX 1 10 1 0
BITMAP
80
80
80
80
80
80
80
80
80
80
ENDCHAR
STARTCHAR 04D0
ENCODING 1232
SWIDTH 552 0
DWIDTH 8 0
BBX 8 13 0 0
BITMAP
24
3C
00
08
18
18
24
24
24
7E
42
81
81
ENDCHAR
STARTCHAR 04D1
ENCODING 1233
SWIDTH 483 0
DWIDTH 7 0
BBX 5 11 1 0
BITMAP
48
78
00
F0
08
08
78
88
88
88
F8
ENDCHAR
STARTCHAR 04D2
ENCODING 1234
SWIDTH 552 0
DWIDTH 8 0
BBX 8 12 0 0
BITMAP
24
00
08
18
18
24
24
24
7E
42
81
81
ENDCHAR
STARTCHAR 04D3
ENCODING 1235
SWIDTH 483 0
DWIDTH 7 0
BBX 5 10 1 0
BITMAP
48
00
F0
08
08
78
88
88
88
F8
ENDCHAR
STARTCHAR 04D4
ENCODING 1236
SWIDTH 759 0
DWIDTH 11 0
BBX 10 10 0 0
BITMAP
0FC0
0C00
1400
1400
27C0
2400
7C00
4400
4400
87C0
ENDCHAR
STARTCHAR 04D5
ENCODING 1237
SWIDTH 828 0
DWIDTH 12 0
BBX 10 8 1 0
BITMAP
7380
0C40
0840
7FC0
8800
8800
8C00
F3C0
ENDCHAR
STARTCHAR 04D6
ENCODING 1238
SWIDTH 552 0
DWIDTH 8 0
BBX 6 13 1 0
BITMAP
48
78
00
FC
80
80
80
FC
80
80
80
80
FC
ENDCHAR
STARTCHAR 04D7
ENCODING 1239
SWIDTH 552 0
DWIDTH 8 0
BBX 6 11 1 0
BITMAP
48
78
00
78
84
84
FC
80
80
80
7C
ENDCHAR
STARTCHAR 04D8
ENCODING 1240
SWIDTH 690 0
DWIDTH 10 0
BBX 8 10 1 0
BITMAP
7C
02
01
01
01
FF
81
81
42
3C
ENDCHAR
STARTCHAR 04D9
ENCODING 1241
SWIDTH 552 0
DWIDTH 8 0
BBX 6 8 1 0
BITMAP
F8
04
04
04
FC
84
84
78
ENDCHAR
STARTCHAR 04DA
ENCODING 1242
SWIDTH 690 0
DWIDTH 10 0
BBX 8 12 1 0
BITMAP
24
00
7C
02
01
01
01
FF
81
81
42
3C
ENDCHAR
STARTCHAR 04DB
ENCODING 1243
SWIDTH 552 0
DWIDTH 8 0
BBX 6 10 1 0
BITMAP
48
00
F8
04
04
04
FC
84
84
78
ENDCHAR
STARTCHAR 04DC
ENCODING 1244
SWIDTH 759 0
DWIDTH 11 0
BBX 11 12 0 0
BITMAP
1200
0000
4440
4440
2480
1500
0E00
0E00
1500
2480
4440
8420
ENDCHAR
STARTCHAR 04DD
ENCODING 1245
SWIDTH 621 0
DWIDTH 9 0
BBX 9 10 0 0
BITMAP
1200
0000
4900
4900
2A00
1C00
1C00
2A00
4900
8880
ENDCHAR
STARTCHAR 04DE
ENCODING 1246
SWIDTH 552 0
DWIDTH 8 0
BBX 6 12 1 0
BITMAP
48
00
F8
04
04
04
78
04
04
04
04
F8
ENDCHAR
STARTCHAR 04DF
ENCODING 1247
SWIDTH 414 0
DWIDTH 6 0
BBX 5 10 0 0
BITMAP
48
00
78
08
08
30
08
08
08
F0
ENDCHAR
STARTCHAR 04E0
ENCODING 1248
SWIDTH 552 0
DWIDTH 8 0
BBX 6 10 1 0
BITMAP
FC
08
10
20
78
04
04
04
04
F8
ENDCHAR
STARTCHAR 04E1
ENCODING 1249
SWIDTH 414 0
DWIDTH 6 0
BBX 6 11 0 -3
BITMAP
F8
10
10
20
70
08
04
04
04
08
F0
ENDCHAR
STARTCHAR 04E2
ENCODING 1250
SWIDTH 690 0
DWIDTH 10 0
BBX 8 12 1 0
BITMAP
3C
00
81
83
85
89
89
91
91
A1
C1
81
ENDCHAR
STARTCHAR 04E3
ENCODING 1251
SWIDTH 552 0
DWIDTH 8 0
BBX 6 10 1 0
BITMAP
78
00
84
8C
94
94
A4
A4
C4
84
ENDCHAR
STARTCHAR 04E4
ENCODING 1252
SWIDTH 690 0
DWIDTH 10 0
BBX 8 12 1 0
BITMAP
24
00
81
83
85
89
89
91
91
A1
C1
81
ENDCHAR
STARTCHAR 04E5
ENCODING 1253
SWIDTH 552 0
DWIDTH 8 0
BBX 6 10 1 0
BITMAP
48
00
84
8C
94
94
A4
A4
C4
84
ENDCHAR
STARTCHAR 04E6
ENCODING 1254
SWIDTH 759 0
DWIDTH 11 0
BBX 9 12 1 0
BITMAP
2400
0000
3E00
4100
8080
8080
8080
8080
8080
8080
4100
3E00
ENDCHAR
STARTCHAR 04E7
ENCODING 1255
SWIDTH 552 0
DWIDTH 8 0
BBX 6 10 1 0
BITMAP
48
00
78
84
84
84
84
84
84
78
ENDCHAR
STARTCHAR 04E8
ENCODING 1256
SWIDTH 759 0
DWIDTH 11 0
BBX 9 10 1 0
BITMAP
3E00
4100
8080
8080
FF80
8080
8080
8080
4100
3E00
ENDCHAR
STARTCHAR 04E9
ENCODING 1257
SWIDTH 552 0
DWIDTH 8 0
BBX 6 8 1 0
BITMAP
78
84
84
FC
84
84
84
78
ENDCHAR
STARTCHAR 04EA
ENCODING 1258
SWIDTH 759 0
DWIDTH 11 0
BBX 9 12 1 0
BITMAP
2400
0000
3E00
4100
8080
8080
FF80
8080
8080
8080
4100
3E00
ENDCHAR
STARTCHAR 04EB
ENCODING 1259
SWIDTH 552 0
DWIDTH 8 0
BBX 6 10 1 0
BITMAP
48
00
78
84
84
FC
84
84
84
78
ENDCHAR
STARTCHAR 04EC
ENCODING 1260
SWIDTH 621 0
DWIDTH 9 0
BBX 7 12 1 0
BITMAP
48
00
F8
04
02
02
7E
02
02
02
04
F8
ENDCHAR
STARTCHAR 04ED
ENCODING 1261
SWIDTH 483 0
DWIDTH 7 0
BBX 6 10 0 0
BITMAP
48
00
78
04
04
7C
04
04
04
F8
ENDCHAR
STARTCHAR 04EE
ENCODING 1262
SWIDTH 552 0
DWIDTH 8 0
BBX 8 12 0 0
BITMAP
3C
00
81
42
42
22
24
14
18
08
10
60
ENDCHAR
STARTCHAR 04EF
ENCODING 1263
SWIDTH 414 0
DWIDTH 6 0
BBX 6 13 0 -3
BITMAP
78
00
84
84
48
48
48
30
30
20
20
20
C0
ENDCHAR
STARTCHAR 04F0
ENCODING 1264
SWIDTH 552 0
DWIDTH 8 0
BBX 8 12 0 0
BITMAP
24
00
81
42
42
22
24
14
18
08
10
60
ENDCHAR
STARTCHAR 04F1
ENCODING 1265
SWIDTH 414 0
DWIDTH 6 0
BBX 6 13 0 -3
BITMAP
48
00
84
84
48
48
48
30
30
20
20
20
C0
ENDCHAR
STARTCHAR 04F2
ENCODING 1266
SWIDTH 552 0
DWIDTH 8 0
BBX 8 13 0 0
BITMAP
0A
14
00
81
42
42
22
24
14
18
08
10
60
ENDCHAR
STARTCHAR 04F3
ENCODING 1267
SWIDTH 414 0
DWIDTH 6 0
BBX 6 14 0 -3
BITMAP
14
28
00
84
84
48
48
48
30
30
20
20
20
C0
ENDCHAR
STARTCHAR 04F4
ENCODING 1268
SWIDTH 621 0
DWIDTH 9 0
BBX 7 12 1 0
BITMAP
24
00
82
82
82
82
82
7E
02
02
02
02
ENDCHAR
STARTCHAR 04F5
ENCODING 1269
SWIDTH 552 0
DWIDTH 8 0
BBX 6 10 1 0
BITMAP
48
00
84
84
84
84
7C
04
04
04
ENDCHAR
STARTCHAR 04F6
ENCODING 1270
SWIDTH 483 0
DWIDTH 7 0
BBX 6 13 1 -3
BITMAP
FC
80
80
80
80
80
80
80
80
C0
40
40
40
ENDCHAR
STARTCHAR 04F7
ENCODING 1271
SWIDTH 414 0
DWIDTH 6 0
BBX 5 11 1 -3
BITMAP
F8
80
80
80
80
80
80
C0
40
40
40
ENDCHAR
STARTCHAR 04F8
ENCODING 1272
SWIDTH 759 0
DWIDTH 11 0
BBX 9 12 1 0
BITMAP
1200
0000
8080
8080
8080
8080
F880
8480
8480
8480
8480
F880
ENDCHAR
STARTCHAR 04F9
ENCODING 1273
SWIDTH 690 0
DWIDTH 10 0
BBX 8 10 1 0
BITMAP
24
00
81
81
81
F9
85
85
85
F9
ENDCHAR
STARTCHAR 04FA
ENCODING 1274
SWIDTH 483 0
DWIDTH 7 0
BBX 7 13 0 -3
BITMAP
7E
40
40
40
F8
40
40
40
40
60
20
20
60
ENDCHAR
STARTCHAR 04FB
ENCODING 1275
SWIDTH 414 0
DWIDTH 6 0
BBX 6 11 0 -3
BITMAP
7C
40
40
F8
40
40
40
60
20
20
40
ENDCHAR
STARTCHAR 04FC
ENCODING 1276
SWIDTH 552 0
DWIDTH 8 0
BBX 8 13 0 -3
BITMAP
42
44
24
28
10
18
28
44
42
83
01
01
03
ENDCHAR
STARTCHAR 04FD
ENCODING 1277
SWIDTH 483 0
DWIDTH 7 0
BBX 6 11 1 -3
BITMAP
88
88
50
20
20
50
88
8C
04
04
0C
ENDCHAR
STARTCHAR 04FE
ENCODING 1278
SWIDTH 552 0
DWIDTH 8 0
BBX 8 10 0 0
BITMAP
42
42
24
18
7E
18
24
22
42
81
ENDCHAR
STARTCHAR 04FF
ENCODING 1279
SWIDTH 483 0
DWIDTH 7 0
BBX 5 8 1 0
BITMAP
88
50
50
F8
50
50
88
88
ENDCHAR
STARTCHAR 0500
ENCODING 1280
SWIDTH 552 0
DWIDTH 8 0
BBX 6 10 1 0
BITMAP
04
04
04
04
7C
84
84
84
84
7C
ENDCHAR
STARTCHAR 0501
ENCODING 1281
SWIDTH 552 0
DWIDTH 8 0
BBX 6 11 1 0
BITMAP
04
04
04
7C
84
84
84
84
84
84
7C
ENDCHAR
STARTCHAR 0502
ENCODING 1282
SWIDTH 828 0
DWIDTH 12 0
BBX 10 10 1 0
BITMAP
0400
0400
0400
0400
7C40
8440
8440
8440
8C40
7380
ENDCHAR
STARTCHAR 0503
ENCODING 1283
SWIDTH 828 0
DWIDTH 12 0
BBX 10 11 1 0
BITMAP
0400
0400
0400
7C00
8400
8400
8440
8440
8440
8440
7B80
ENDCHAR
STARTCHAR 0504
ENCODING 1284
SWIDTH 828 0
DWIDTH 12 0
BBX 10 10 1 0
BITMAP
F800
0800
0400
0800
7040
0840
0440
0440
0440
0380
ENDCHAR
STARTCHAR 0505
ENCODING 1285
SWIDTH 759 0
DWIDTH 11 0
BBX 9 8 1 0
BITMAP
F000
1000
1000
1080
7080
0880
0880
0700
ENDCHAR
STARTCHAR 0506
ENCODING 1286
SWIDTH 552 0
DWIDTH 8 0
BBX 7 13 1 -3
BITMAP
F8
04
04
08
70
0C
04
04
04
06
02
02
02
ENDCHAR
STARTCHAR 0507
ENCODING 1287
SWIDTH 483 0
DWIDTH 7 0
BBX 6 11 1 -3
BITMAP
F0
08
08
10
70
08
08
0C
04
04
04
ENDCHAR
STARTCHAR 0508
ENCODING 1288
SWIDTH 897 0
DWIDTH 13 0
BBX 12 10 0 0
BITMAP
1F00
1100
1100
1100
2110
2110
2110
2110
2110
C0E0
ENDCHAR
STARTCHAR 0509
ENCODING 1289
SWIDTH 759 0
DWIDTH 11 0
BBX 10 8 0 0
BITMAP
3C00
2400
2400
2440
2440
2440
4440
C380
ENDCHAR
STARTCHAR 050A
ENCODING 1290
SWIDTH 966 0
DWIDTH 14 0
BBX 12 10 1 0
BITMAP
8100
8100
8100
8100
FE10
8110
8110
8110
8110
80E0
ENDCHAR
STARTCHAR 050B
ENCODING 1291
SWIDTH 828 0
DWIDTH 12 0
BBX 10 8 1 0
BITMAP
8400
8400
8400
FC40
8440
8440
8440
8380
ENDCHAR
STARTCHAR 050C
ENCODING 1292
SWIDTH 690 0
DWIDTH 10 0
BBX 8 10 1 0
BITMAP
3E
40
80
80
80
87
81
81
41
3E
ENDCHAR
STARTCHAR 050D
ENCODING 1293
SWIDTH 621 0
DWIDTH 9 0
BBX 7 8 1 0
BITMAP
3E
40
80
80
8E
82
82
7C
ENDCHAR
STARTCHAR 050E
ENCODING 1294
SWIDTH 621 0
DWIDTH 9 0
BBX 8 10 0 0
BITMAP
FE
10
10
10
11
11
11
11
11
0E
ENDCHAR
STARTCHAR 050F
ENCODING 1295
SWIDTH 621 0
DWIDTH 9 0
BBX 8 8 0 0
BITMAP
FC
10
10
11
11
11
11
0E
ENDCHAR
STARTCHAR 0510
ENCODING 1296
SWIDTH 552 0
DWIDTH 8 0
BBX 6 10 1 0
BITMAP
7C
80
80
40
78
80
80
80
80
7C
ENDCHAR
STARTCHAR 0511
ENCODING 1297
SWIDTH 414 0
DWIDTH 6 0
BBX 5 8 1 0
BITMAP
F8
80
80
60
80
80
80
70
ENDCHAR
STARTCHAR 0512
ENCODING 1298
SWIDTH 690 0
DWIDTH 10 0
BBX 9 13 0 -3
BITMAP
1F80
1080
1080
1080
1080
2080
2080
2080
2080
C080
0080
0080
0180
ENDCHAR
STARTCHAR 0513
ENCODING 1299
SWIDTH 552 0
DWIDTH 8 0
BBX 8 11 0 -3
BITMAP
1E
22
22
22
22
22
42
C3
01
01
02
ENDCHAR
STARTCHAR 1E00
ENCODING 7680
SWIDTH 552 0
DWIDTH 8 0
BBX 8 14 0 -4
BITMAP
08
18
18
24
24
24
7E
42
81
81
00
1C
14
1C
ENDCHAR
STARTCHAR 1E01
ENCODING 7681
SWIDTH 483 0
DWIDTH 7 0
BBX 5 12 1 -4
BITMAP
F0
08
08
78
88
88
88
F8
00
70
50
70
ENDCHAR
STARTCHAR 1E3E
ENCODING 7742
SWIDTH 828 0
DWIDTH 12 0
BBX 10 13 1 0
BITMAP
0200
0400
0000
C0C0
C0C0
A140
A140
A140
9240
9240
8C40
8C40
8840
ENDCHAR
STARTCHAR 1E3F
ENCODING 7743
SWIDTH 828 0
DWIDTH 12 0
BBX 10 11 1 0
BITMAP
0200
0400
0000
FB80
8440
8440
8440
8440
8440
8440
8440
ENDCHAR
STARTCHAR 1E80
ENCODING 7808
SWIDTH 828 0
DWIDTH 12 0
BBX 12 13 0 0
BITMAP
0400
0200
0000
8410
4620
4620
4A20
4920
2940
2940
30C0
1080
1080
ENDCHAR
STARTCHAR 1E81
ENCODING 7809
SWIDTH 690 0
DWIDTH 10 0
BBX 10 11 0 0
BITMAP
0800
0400
0000
8440
8C40
4C80
4A80
5280
5280
2300
2100
ENDCHAR
STARTCHAR 1E82
ENCODING 7810
SWIDTH 828 0
DWIDTH 12 0
BBX 12 13 0 0
BITMAP
0100
0200
0000
8410
4620
4620
4A20
4920
2940
2940
30C0
1080
1080
ENDCHAR
STARTCHAR 1E83
ENCODING 7811
SWIDTH 690 0
DWIDTH 10 0
BBX 10 11 0 0
BITMAP
0200
0400
0000
8440
8C40
4C80
4A80
5280
5280
2300
2100
ENDCHAR
STARTCHAR 1E84
ENCODING 7812
SWIDTH 828 0
DWIDTH 12 0
BBX 12 12 0 0
BITMAP
0900
0000
8410
4620
4620
4A20
4920
2940
2940
30C0
1080
1080
ENDCHAR
STARTCHAR 1E85
ENCODING 7813
SWIDTH 690 0
DWIDTH 10 0
BBX 10 10 0 0
BITMAP
1200
0000
8440
8C40
4C80
4A80
5280
5280
2300
2100
ENDCHAR
STARTCHAR 1EA0
ENCODING 7840
SWIDTH 552 0
DWIDTH 8 0
BBX 8 12 0 -2
BITMAP
08
18
18
24
24
24
7E
42
81
81
00
10
ENDCHAR
STARTCHAR 1EA1
ENCODING 7841
SWIDTH 483 0
DWIDTH 7 0
BBX 5 10 1 -2
BITMAP
F0
08
08
78
88
88
88
F8
00
20
ENDCHAR
STARTCHAR 1EA2
ENCODING 7842
SWIDTH 552 0
DWIDTH 8 0
BBX 8 14 0 0
BITMAP
0C
04
08
00
08
18
18
24
24
24
7E
42
81
81
ENDCHAR
STARTCHAR 1EA3
ENCODING 7843
SWIDTH 483 0
DWIDTH 7 0
BBX 5 12 1 0
BITMAP
30
10
20
00
F0
08
08
78
88
88
88
F8
ENDCHAR
STARTCHAR 1EA4
ENCODING 7844
SWIDTH 552 0
DWIDTH 8 0
BBX 8 14 0 0
BITMAP
02
1C
24
00
08
18
18
24
24
24
7E
42
81
81
ENDCHAR
STARTCHAR 1EA5
ENCODING 7845
SWIDTH 483 0
DWIDTH 7 0
BBX 6 12 1 0
BITMAP
04
38
48
00
F0
08
08
78
88
88
88
F8
ENDCHAR
STARTCHAR 1EA6
ENCODING 7846
SWIDTH 552 0
DWIDTH 8 0
BBX 8 14 0 0
BITMAP
40
58
24
00
08
18
18
24
24
24
7E
42
81
81
ENDCHAR
STARTCHAR 1EA7
ENCODING 7847
SWIDTH 483 0
DWIDTH 7 0
BBX 5 12 1 0
BITMAP
80
B0
48
00
F0
08
08
78
88
88
88
F8
ENDCHAR
STARTCHAR 1EA8
ENCODING 7848
SWIDTH 552 0
DWIDTH 8 0
BBX 8 15 0 0
BITMAP
06
02
1C
24
00
08
18
18
24
24
24
7E
42
81
81
ENDCHAR
STARTCHAR 1EA9
ENCODING 7849
SWIDTH 483 0
DWIDTH 7 0
BBX 6 13 1 0
BITMAP
0C
04
38
48
00
F0
08
08
78
88
88
88
F8
ENDCHAR
STARTCHAR 1EAA
ENCODING 7850
SWIDTH 552 0
DWIDTH 8 0
BBX 8 15 0 0
BITMAP
34
2C
18
24
00
08
18
18
24
24
24
7E
42
81
81
ENDCHAR
STARTCHAR 1EAB
ENCODING 7851
SWIDTH 483 0
DWIDTH 7 0
BBX 5 13 1 0
BITMAP
68
58
30
48
00
F0
08
08
78
88
88
88
F8
ENDCHAR
STARTCHAR 1EAC
ENCODING 7852
SWIDTH 552 0
DWIDTH 8 0
BBX 8 15 0 -2
BITMAP
18
24
00
08
18
18
24
24
24
7E
42
81
81
00
10
ENDCHAR
STARTCHAR 1EAD
ENCODING 7853
SWIDTH 483 0
DWIDTH 7 0
BBX 5 13 1 -2
BITMAP
30
48
00
F0
08
08
78
88
88
88
F8
00
20
ENDCHAR
STARTCHAR 1EAE
ENCODING 7854
SWIDTH 552 0
DWIDTH 8 0
BBX 8 15 0 0
BITMAP
08
10
24
38
00
08
18
18
24
24
24
7E
42
81
81
ENDCHAR
STARTCHAR 1EAF
ENCODING 7855
SWIDTH 483 0
DWIDTH 7 0
BBX 5 13 1 0
BITMAP
10
20
48
70
00
F0
08
08
78
88
88
88
F8
ENDCHAR
STARTCHAR 1EB0
ENCODING 7856
SWIDTH 552 0
DWIDTH 8 0
BBX 8 15 0 0
BITMAP
10
10
24
38
00
08
18
18
24
24
24
7E
42
81
81
ENDCHAR
STARTCHAR 1EB1
ENCODING 7857
SWIDTH 483 0
DWIDTH 7 0
BBX 5 13 1 0
BITMAP
20
20
48
70
00
F0
08
08
78
88
88
88
F8
ENDCHAR
STARTCHAR 1EB2
ENCODING 7858
SWIDTH 552 0
DWIDTH 8 0
BBX 8 15 0 0
BITMAP
18
10
24
38
00
08
18
18
24
24
24
7E
42
81
81
ENDCHAR
STARTCHAR 1EB3
ENCODING 7859
SWIDTH 483 0
DWIDTH 7 0
BBX 5 13 1 0
BITMAP
30
20
48
70
00
F0
08
08
78
88
88
88
F8
ENDCHAR
STARTCHAR 1EB4
ENCODING 7860
SWIDTH 552 0
DWIDTH 8 0
BBX 8 15 0 0
BITMAP
34
2C
24
38
00
08
18
18
24
24
24
7E
42
81
81
ENDCHAR
STARTCHAR 1EB5
ENCODING 7861
SWIDTH 483 0
DWIDTH 7 0
BBX 5 13 1 0
BITMAP
68
58
48
70
00
F0
08
08
78
88
88
88
F8
ENDCHAR
STARTCHAR 1EB6
ENCODING 7862
SWIDTH 552 0
DWIDTH 8 0
BBX 8 15 0 -2
BITMAP
24
18
00
08
18
18
24
24
24
7E
42
81
81
00
10
ENDCHAR
STARTCHAR 1EB7
ENCODING 7863
SWIDTH 483 0
DWIDTH 7 0
BBX 5 13 1 -2
BITMAP
48
30
00
F0
08
08
78
88
88
88
F8
00
20
ENDCHAR
STARTCHAR 1EB8
ENCODING 7864
SWIDTH 552 0
DWIDTH 8 0
BBX 6 12 1 -2
BITMAP
FC
80
80
80
FC
80
80
80
80
FC
00
20
ENDCHAR
STARTCHAR 1EB9
ENCODING 7865
SWIDTH 552 0
DWIDTH 8 0
BBX 6 10 1 -2
BITMAP
78
84
84
FC
80
80
80
7C
00
20
ENDCHAR
STARTCHAR 1EBA
ENCODING 7866
SWIDTH 552 0
DWIDTH 8 0
BBX 6 14 1 0
BITMAP
30
10
20
00
FC
80
80
80
FC
80
80
80
80
FC
ENDCHAR
STARTCHAR 1EBB
ENCODING 7867
SWIDTH 552 0
DWIDTH 8 0
BBX 6 12 1 0
BITMAP
30
10
20
00
78
84
84
FC
80
80
80
7C
ENDCHAR
STARTCHAR 1EBC
ENCODING 7868
SWIDTH 552 0
DWIDTH 8 0
BBX 6 13 1 0
BITMAP
64
58
00
FC
80
80
80
FC
80
80
80
80
FC
ENDCHAR
STARTCHAR 1EBD
ENCODING 7869
SWIDTH 552 0
DWIDTH 8 0
BBX 6 11 1 0
BITMAP
64
58
00
78
84
84
FC
80
80
80
7C
ENDCHAR
STARTCHAR 1EBE
ENCODING 7870
SWIDTH 552 0
DWIDTH 8 0
BBX 6 14 1 0
BITMAP
04
38
48
00
FC
80
80
80
FC
80
80
80
80
FC
ENDCHAR
STARTCHAR 1EBF
ENCODING 7871
SWIDTH 552 0
DWIDTH 8 0
BBX 6 12 1 0
BITMAP
04
38
48
00
78
84
84
FC
80
80
80
7C
ENDCHAR
STARTCHAR 1EC0
ENCODING 7872
SWIDTH 552 0
DWIDTH 8 0
BBX 6 14 1 0
BITMAP
80
B0
48
00
FC
80
80
80
FC
80
80
80
80
FC
ENDCHAR
STARTCHAR 1EC1
ENCODING 7873
SWIDTH 552 0
DWIDTH 8 0
BBX 6 12 1 0
BITMAP
80
B0
48
00
78
84
84
FC
80
80
80
7C
ENDCHAR
STARTCHAR 1EC2
ENCODING 7874
SWIDTH 552 0
DWIDTH 8 0
BBX 6 15 1 0
BITMAP
0C
04
38
48
00
FC
80
80
80
FC
80
80
80
80
FC
ENDCHAR
STARTCHAR 1EC3
ENCODING 7875
SWIDTH 552 0
DWIDTH 8 0
BBX 6 13 1 0
BITMAP
0C
04
38
48
00
78
84
84
FC
80
80
80
7C
ENDCHAR
STARTCHAR 1EC4
ENCODING 7876
SWIDTH 552 0
DWIDTH 8 0
BBX 6 15 1 0
BITMAP
68
58
30
48
00
FC
80
80
80
FC
80
80
80
80
FC
ENDCHAR
STARTCHAR 1EC5
ENCODING 7877
SWIDTH 552 0
DWIDTH 8 0
BBX 6 13 1 0
BITMAP
68
58
30
48
00
78
84
84
FC
80
80
80
7C
ENDCHAR
STARTCHAR 1EC6
ENCODING 7878
SWIDTH 552 0
DWIDTH 8 0
BBX 6 15 1 -2
BITMAP
30
48
00
FC
80
80
80
FC
80
80
80
80
FC
00
20
ENDCHAR
STARTCHAR 1EC7
ENCODING 7879
SWIDTH 552 0
DWIDTH 8 0
BBX 6 13 1 -2
BITMAP
30
48
00
78
84
84
FC
80
80
80
7C
00
20
ENDCHAR
STARTCHAR 1EC8
ENCODING 7880
SWIDTH 276 0
DWIDTH 4 0
BBX 2 14 1 0
BITMAP
C0
40
80
00
80
80
80
80
80
80
80
80
80
80
ENDCHAR
STARTCHAR 1EC9
ENCODING 7881
SWIDTH 207 0
DWIDTH 3 0
BBX 2 12 1 0
BITMAP
C0
40
80
00
80
80
80
80
80
80
80
80
ENDCHAR
STARTCHAR 1ECA
ENCODING 7882
SWIDTH 276 0
DWIDTH 4 0
BBX 1 12 1 -2
BITMAP
80
80
80
80
80
80
80
80
80
80
00
80
ENDCHAR
STARTCHAR 1ECB
ENCODING 7883
SWIDTH 207 0
DWIDTH 3 0
BBX 1 12 1 -2
BITMAP
80
00
80
80
80
80
80
80
80
80
00
80
ENDCHAR
STARTCHAR 1ECC
ENCODING 7884
SWIDTH 759 0
DWIDTH 11 0
BBX 9 12 1 -2
BITMAP
3E00
4100
8080
8080
8080
8080
8080
8080
4100
3E00
0000
1000
ENDCHAR
STARTCHAR 1ECD
ENCODING 7885
SWIDTH 552 0
DWIDTH 8 0
BBX 6 10 1 -2
BITMAP
78
84
84
84
84
84
84
78
00
20
ENDCHAR
STARTCHAR 1ECE
ENCODING 7886
SWIDTH 759 0
DWIDTH 11 0
BBX 9 14 1 0
BITMAP
1800
0800
1000
0000
3E00
4100
8080
8080
8080
8080
8080
8080
4100
3E00
ENDCHAR
STARTCHAR 1ECF
ENCODING 7887
SWIDTH 552 0
DWIDTH 8 0
BBX 6 12 1 0
BITMAP
30
10
20
00
78
84
84
84
84
84
84
78
ENDCHAR
STARTCHAR 1ED0
ENCODING 7888
SWIDTH 759 0
DWIDTH 11 0
BBX 9 14 1 0
BITMAP
0100
0E00
1200
0000
3E00
4100
8080
8080
8080
8080
8080
8080
4100
3E00
ENDCHAR
STARTCHAR 1ED1
ENCODING 7889
SWIDTH 552 0
DWIDTH 8 0
BBX 6 12 1 0
BITMAP
04
38
48
00
78
84
84
84
84
84
84
78
ENDCHAR
STARTCHAR 1ED2
ENCODING 7890
SWIDTH 759 0
DWIDTH 11 0
BBX 9 14 1 0
BITMAP
2000
2C00
1200
0000
3E00
4100
8080
8080
8080
8080
8080
8080
4100
3E00
ENDCHAR
STARTCHAR 1ED3
ENCODING 7891
SWIDTH 552 0
DWIDTH 8 0
BBX 6 12 1 0
BITMAP
80
B0
48
00
78
84
84
84
84
84
84
78
ENDCHAR
STARTCHAR 1ED4
ENCODING 7892
SWIDTH 759 0
DWIDTH 11 0
BBX 9 15 1 0
BITMAP
0300
0100
0E00
1200
0000
3E00
4100
8080
8080
8080
8080
8080
8080
4100
3E00
ENDCHAR
STARTCHAR 1ED5
ENCODING 7893
SWIDTH 552 0
DWIDTH 8 0
BBX 6 13 1 0
BITMAP
0C
04
38
48
00
78
84
84
84
84
84
84
78
ENDCHAR
STARTCHAR 1ED6
ENCODING 7894
SWIDTH 759 0
DWIDTH 11 0
BBX 9 15 1 0
BITMAP
1A00
1600
0C00
1200
0000
3E00
4100
8080
8080
8080
8080
8080
8080
4100
3E00
ENDCHAR
STARTCHAR 1ED7
ENCODING 7895
SWIDTH 552 0
DWIDTH 8 0
BBX 6 13 1 0
BITMAP
68
58
30
48
00
78
84
84
84
84
84
84
78
ENDCHAR
STARTCHAR 1ED8
ENCODING 7896
SWIDTH 759 0
DWIDTH 11 0
BBX 9 15 1 -2
BITMAP
1800
2400
0000
3E00
4100
8080
8080
8080
8080
8080
8080
4100
3E00
0000
1000
ENDCHAR
STARTCHAR 1ED9
ENCODING 7897
SWIDTH 552 0
DWIDTH 8 0
BBX 6 13 1 -2
BITMAP
30
48
00
78
84
84
84
84
84
84
78
00
20
ENDCHAR
STARTCHAR 1EDA
ENCODING 7898
SWIDTH 759 0
DWIDTH 11 0
BBX 10 13 1 0
BITMAP
0400
0800
0040
3E40
4180
8080
8080
8080
8080
8080
8080
4100
3E00
ENDCHAR
STARTCHAR 1EDB
ENCODING 7899
SWIDTH 552 0
DWIDTH 8 0
BBX 7 11 1 0
BITMAP
08
10
02
7A
84
84
84
84
84
84
78
ENDCHAR
STARTCHAR 1EDC
ENCODING 7900
SWIDTH 759 0
DWIDTH 11 0
BBX 10 13 1 0
BITMAP
1000
0800
0040
3E40
4180
8080
8080
8080
8080
8080
8080
4100
3E00
ENDCHAR
STARTCHAR 1EDD
ENCODING 7901
SWIDTH 552 0
DWIDTH 8 0
BBX 7 11 1 0
BITMAP
20
10
02
7A
84
84
84
84
84
84
78
ENDCHAR
STARTCHAR 1EDE
ENCODING 7902
SWIDTH 759 0
DWIDTH 11 0
BBX 10 14 1 0
BITMAP
1800
0800
1000
0040
3E40
4180
8080
8080
8080
8080
8080
8080
4100
3E00
ENDCHAR
STARTCHAR 1EDF
ENCODING 7903
SWIDTH 552 0
DWIDTH 8 0
BBX 7 12 1 0
BITMAP
30
10
20
02
7A
84
84
84
84
84
84
78
ENDCHAR
STARTCHAR 1EE0
ENCODING 7904
SWIDTH 759 0
DWIDTH 11 0
BBX 10 13 1 0
BITMAP
3200
2C00
0040
3E40
4180
8080
8080
8080
8080
8080
8080
4100
3E00
ENDCHAR
STARTCHAR 1EE1
ENCODING 7905
SWIDTH 552 0
DWIDTH 8 0
BBX 7 11 1 0
BITMAP
64
58
02
7A
84
84
84
84
84
84
78
ENDCHAR
STARTCHAR 1EE2
ENCODING 7906
SWIDTH 759 0
DWIDTH 11 0
BBX 10 13 1 -2
BITMAP
0040
3E40
4180
8080
8080
8080
8080
8080
8080
4100
3E00
0000
1000
ENDCHAR
STARTCHAR 1EE3
ENCODING 7907
SWIDTH 552 0
DWIDTH 8 0
BBX 7 11 1 -2
BITMAP
02
7A
84
84
84
84
84
84
78
00
20
ENDCHAR
STARTCHAR 1EE4
ENCODING 7908
SWIDTH 690 0
DWIDTH 10 0
BBX 8 12 1 -2
BITMAP
81
81
81
81
81
81
81
81
42
3C
00
10
ENDCHAR
STARTCHAR 1EE5
ENCODING 7909
SWIDTH 552 0
DWIDTH 8 0
BBX 6 10 1 -2
BITMAP
84
84
84
84
84
84
84
7C
00
20
ENDCHAR
STARTCHAR 1EE6
ENCODING 7910
SWIDTH 690 0
DWIDTH 10 0
BBX 8 14 1 0
BITMAP
18
08
10
00
81
81
81
81
81
81
81
81
42
3C
ENDCHAR
STARTCHAR 1EE7
ENCODING 7911
SWIDTH 552 0
DWIDTH 8 0
BBX 6 12 1 0
BITMAP
30
10
20
00
84
84
84
84
84
84
84
7C
ENDCHAR
STARTCHAR 1EE8
ENCODING 7912
SWIDTH 690 0
DWIDTH 10 0
BBX 10 13 1 0
BITMAP
0400
0800
0040
8180
8100
8100
8100
8100
8100
8100
8100
4200
3C00
ENDCHAR
STARTCHAR 1EE9
ENCODING 7913
SWIDTH 621 0
DWIDTH 9 0
BBX 8 11 1 0
BITMAP
08
10
01
85
82
84
84
84
84
84
7C
ENDCHAR
STARTCHAR 1EEA
ENCODING 7914
SWIDTH 690 0
DWIDTH 10 0
BBX 10 13 1 0
BITMAP
2000
1000
0040
8180
8100
8100
8100
8100
8100
8100
8100
4200
3C00
ENDCHAR
STARTCHAR 1EEB
ENCODING 7915
SWIDTH 621 0
DWIDTH 9 0
BBX 8 11 1 0
BITMAP
40
20
01
85
82
84
84
84
84
84
7C
ENDCHAR
STARTCHAR 1EEC
ENCODING 7916
SWIDTH 690 0
DWIDTH 10 0
BBX 10 14 1 0
BITMAP
1800
0800
1000
0040
8180
8100
8100
8100
8100
8100
8100
8100
4200
3C00
ENDCHAR
STARTCHAR 1EED
ENCODING 7917
SWIDTH 621 0
DWIDTH 9 0
BBX 8 12 1 0
BITMAP
30
10
20
01
85
82
84
84
84
84
84
7C
ENDCHAR
STARTCHAR 1EEE
ENCODING 7918
SWIDTH 690 0
DWIDTH 10 0
BBX 10 13 1 0
BITMAP
3200
2C00
0040
8180
8100
8100
8100
8100
8100
8100
8100
4200
3C00
ENDCHAR
STARTCHAR 1EEF
ENCODING 7919
SWIDTH 621 0
DWIDTH 9 0
BBX 8 11 1 0
BITMAP
64
58
01
85
82
84
84
84
84
84
7C
ENDCHAR
STARTCHAR 1EF0
ENCODING 7920
SWIDTH 690 0
DWIDTH 10 0
BBX 10 13 1 -2
BITMAP
0040
8180
8100
8100
8100
8100
8100
8100
8100
4200
3C00
0000
1000
ENDCHAR
STARTCHAR 1EF1
ENCODING 7921
SWIDTH 621 0
DWIDTH 9 0
BBX 8 11 1 -2
BITMAP
01
85
82
84
84
84
84
84
7C
00
20
ENDCHAR
STARTCHAR 1EF2
ENCODING 7922
SWIDTH 483 0
DWIDTH 7 0
BBX 7 13 0 0
BITMAP
20
10
00
82
44
44
28
28
10
10
10
10
10
ENDCHAR
STARTCHAR 1EF3
ENCODING 7923
SWIDTH 414 0
DWIDTH 6 0
BBX 6 14 0 -3
BITMAP
20
10
00
84
84
48
48
48
30
30
20
20
20
C0
ENDCHAR
STARTCHAR 1EF4
ENCODING 7924
SWIDTH 483 0
DWIDTH 7 0
BBX 7 12 0 -2
BITMAP
82
44
44
28
28
10
10
10
10
10
00
10
ENDCHAR
STARTCHAR 1EF5
ENCODING 7925
SWIDTH 414 0
DWIDTH 6 0
BBX 6 11 0 -3
BITMAP
84
84
48
48
48
30
30
20
20
28
C0
ENDCHAR
STARTCHAR 1EF6
ENCODING 7926
SWIDTH 483 0
DWIDTH 7 0
BBX 7 14 0 0
BITMAP
18
08
10
00
82
44
44
28
28
10
10
10
10
10
ENDCHAR
STARTCHAR 1EF7
ENCODING 7927
SWIDTH 414 0
DWIDTH 6 0
BBX 6 15 0 -3
BITMAP
30
10
20
00
84
84
48
48
48
30
30
20
20
20
C0
ENDCHAR
STARTCHAR 1EF8
ENCODING 7928
SWIDTH 483 0
DWIDTH 7 0
BBX 7 13 0 0
BITMAP
64
58
00
82
44
44
28
28
10
10
10
10
10
ENDCHAR
STARTCHAR 1EF9
ENCODING 7929
SWIDTH 414 0
DWIDTH 6 0
BBX 6 14 0 -3
BITMAP
64
58
00
84
84
48
48
48
30
30
20
20
20
C0
ENDCHAR
STARTCHAR 1F4D
ENCODING 8013
SWIDTH 759 0
DWIDTH 11 0
BBX 12 10 -2 0
BITMAP
57C0
9820
F010
1010
1010
1010
1010
1010
0820
07C0
ENDCHAR
STARTCHAR 2000
ENCODING 8192
SWIDTH 483 0
DWIDTH 7 0
BBX 0 0 0 0
BITMAP
ENDCHAR
STARTCHAR 2001
ENCODING 8193
SWIDTH 966 0
DWIDTH 14 0
BBX 0 0 0 0
BITMAP
ENDCHAR
STARTCHAR 2002
ENCODING 8194
SWIDTH 483 0
DWIDTH 7 0
BBX 0 0 0 0
BITMAP
ENDCHAR
STARTCHAR 2003
ENCODING 8195
SWIDTH 966 0
DWIDTH 14 0
BBX 0 0 0 0
BITMAP
ENDCHAR
STARTCHAR 2004
ENCODING 8196
SWIDTH 345 0
DWIDTH 5 0
BBX 0 0 0 0
BITMAP
ENDCHAR
STARTCHAR 2005
ENCODING 8197
SWIDTH 276 0
DWIDTH 4 0
BBX 0 0 0 0
BITMAP
ENDCHAR
STARTCHAR 2006
ENCODING 8198
SWIDTH 138 0
DWIDTH 2 0
BBX 0 0 0 0
BITMAP
ENDCHAR
STARTCHAR 2007
ENCODING 8199
SWIDTH 552 0
DWIDTH 8 0
BBX 0 0 0 0
BITMAP
ENDCHAR
STARTCHAR 2008
ENCODING 8200
SWIDTH 276 0
DWIDTH 4 0
BBX 0 0 0 0
BITMAP
ENDCHAR
STARTCHAR 2009
ENCODING 8201
SWIDTH 207 0
DWIDTH 3 0
BBX 0 0 0 0
BITMAP
ENDCHAR
STARTCHAR 200A
ENCODING 8202
SWIDTH 69 0
DWIDTH 1 0
BBX 0 0 0 0
BITMAP
ENDCHAR
STARTCHAR 200B
ENCODING 8203
SWIDTH 0 0
DWIDTH 0 0
BBX 0 0 0 0
BITMAP
ENDCHAR
STARTCHAR 2013
ENCODING 8211
SWIDTH 483 0
DWIDTH 7 0
BBX 5 1 1 3
BITMAP
F8
ENDCHAR
STARTCHAR 2014
ENCODING 8212
SWIDTH 966 0
DWIDTH 14 0
BBX 12 1 1 3
BITMAP
FFF0
ENDCHAR
STARTCHAR 2015
ENCODING 8213
SWIDTH 966 0
DWIDTH 14 0
BBX 12 1 1 3
BITMAP
FFF0
ENDCHAR
STARTCHAR 2017
ENCODING 8215
SWIDTH 414 0
DWIDTH 6 0
BBX 6 3 0 -3
BITMAP
FC
00
FC
ENDCHAR
STARTCHAR 2018
ENCODING 8216
SWIDTH 138 0
DWIDTH 2 0
BBX 2 3 0 7
BITMAP
40
40
80
ENDCHAR
STARTCHAR 2019
ENCODING 8217
SWIDTH 138 0
DWIDTH 2 0
BBX 2 3 0 7
BITMAP
40
80
80
ENDCHAR
STARTCHAR 201A
ENCODING 8218
SWIDTH 207 0
DWIDTH 3 0
BBX 2 3 0 -2
BITMAP
40
80
80
ENDCHAR
STARTCHAR 201B
ENCODING 8219
SWIDTH 138 0
DWIDTH 2 0
BBX 2 3 0 7
BITMAP
80
40
40
ENDCHAR
STARTCHAR 201C
ENCODING 8220
SWIDTH 276 0
DWIDTH 4 0
BBX 4 3 0 7
BITMAP
50
90
A0
ENDCHAR
STARTCHAR 201D
ENCODING 8221
SWIDTH 276 0
DWIDTH 4 0
BBX 4 3 0 7
BITMAP
50
90
A0
ENDCHAR
STARTCHAR 201E
ENCODING 8222
SWIDTH 345 0
DWIDTH 5 0
BBX 4 3 0 -2
BITMAP
50
90
A0
ENDCHAR
STARTCHAR 2020
ENCODING 8224
SWIDTH 483 0
DWIDTH 7 0
BBX 5 11 1 0
BITMAP
20
20
20
F8
20
20
20
20
20
20
20
ENDCHAR
STARTCHAR 2021
ENCODING 8225
SWIDTH 483 0
DWIDTH 7 0
BBX 5 11 1 0
BITMAP
20
20
20
F8
20
20
20
F8
20
20
20
ENDCHAR
STARTCHAR 2022
ENCODING 8226
SWIDTH 345 0
DWIDTH 5 0
BBX 2 2 2 4
BITMAP
C0
C0
ENDCHAR
STARTCHAR 2026
ENCODING 8230
SWIDTH 690 0
DWIDTH 10 0
BBX 8 1 1 0
BITMAP
91
ENDCHAR
STARTCHAR 2030
ENCODING 8240
SWIDTH 1104 0
DWIDTH 16 0
BBX 14 10 1 0
BITMAP
E100
9200
9200
9400
9B98
6A64
1464
1464
2264
2398
ENDCHAR
STARTCHAR 2032
ENCODING 8242
SWIDTH 207 0
DWIDTH 3 0
BBX 1 4 1 6
BITMAP
80
80
80
80
ENDCHAR
STARTCHAR 2033
ENCODING 8243
SWIDTH 345 0
DWIDTH 5 0
BBX 3 4 1 6
BITMAP
A0
A0
A0
A0
ENDCHAR
STARTCHAR 2039
ENCODING 8249
SWIDTH 276 0
DWIDTH 4 0
BBX 2 6 1 1
BITMAP
40
40
80
80
40
40
ENDCHAR
STARTCHAR 203A
ENCODING 8250
SWIDTH 276 0
DWIDTH 4 0
BBX 2 6 1 1
BITMAP
80
80
40
40
80
80
ENDCHAR
STARTCHAR 203C
ENCODING 8252
SWIDTH 414 0
DWIDTH 6 0
BBX 4 10 1 0
BITMAP
90
90
90
90
90
90
90
00
00
90
ENDCHAR
STARTCHAR 2044
ENCODING 8260
SWIDTH 138 0
DWIDTH 2 0
BBX 6 10 -2 0
BITMAP
04
04
08
10
10
20
20
40
80
80
ENDCHAR
STARTCHAR 2070
ENCODING 8304
SWIDTH 345 0
DWIDTH 5 0
BBX 5 6 0 4
BITMAP
70
88
88
88
88
70
ENDCHAR
STARTCHAR 2074
ENCODING 8308
SWIDTH 345 0
DWIDTH 5 0
BBX 5 6 0 4
BITMAP
10
30
50
90
F8
10
ENDCHAR
STARTCHAR 2075
ENCODING 8309
SWIDTH 345 0
DWIDTH 5 0
BBX 4 6 1 4
BITMAP
E0
80
E0
10
10
E0
ENDCHAR
STARTCHAR 2076
ENCODING 8310
SWIDTH 345 0
DWIDTH 5 0
BBX 5 6 0 4
BITMAP
30
40
70
88
88
70
ENDCHAR
STARTCHAR 2077
ENCODING 8311
SWIDTH 345 0
DWIDTH 5 0
BBX 5 6 0 4
BITMAP
F8
10
10
20
20
40
ENDCHAR
STARTCHAR 2078
ENCODING 8312
SWIDTH 345 0
DWIDTH 5 0
BBX 5 6 0 4
BITMAP
70
88
70
50
88
70
ENDCHAR
STARTCHAR 2079
ENCODING 8313
SWIDTH 345 0
DWIDTH 5 0
BBX 5 6 0 4
BITMAP
70
88
88
78
10
70
ENDCHAR
STARTCHAR 207F
ENCODING 8319
SWIDTH 345 0
DWIDTH 5 0
BBX 3 4 1 6
BITMAP
E0
A0
A0
A0
ENDCHAR
STARTCHAR 20A3
ENCODING 8355
SWIDTH 552 0
DWIDTH 8 0
BBX 6 10 1 0
BITMAP
7C
40
40
40
7C
40
40
F0
40
40
ENDCHAR
STARTCHAR 20A4
ENCODING 8356
SWIDTH 552 0
DWIDTH 8 0
BBX 6 10 1 0
BITMAP
3C
40
40
40
F8
40
F8
40
40
FC
ENDCHAR
STARTCHAR 20A7
ENCODING 8359
SWIDTH 690 0
DWIDTH 10 0
BBX 9 10 1 0
BITMAP
F000
8800
8800
8A00
9700
E200
8200
8200
8200
8380
ENDCHAR
STARTCHAR 20AB
ENCODING 8363
SWIDTH 552 0
DWIDTH 8 0
BBX 7 13 1 -2
BITMAP
04
3E
04
7C
84
84
84
84
84
84
7C
00
FC
ENDCHAR
STARTCHAR 20AC
ENCODING 8364
SWIDTH 552 0
DWIDTH 8 0
BBX 7 10 1 0
BITMAP
3E
40
40
F8
40
F0
40
40
20
1C
ENDCHAR
STARTCHAR 2105
ENCODING 8453
SWIDTH 759 0
DWIDTH 11 0
BBX 9 10 1 0
BITMAP
6200
8200
8400
8400
6800
0B00
1480
1480
2480
2300
ENDCHAR
STARTCHAR 2113
ENCODING 8467
SWIDTH 483 0
DWIDTH 7 0
BBX 5 10 1 0
BITMAP
30
48
48
50
60
C0
40
40
48
30
ENDCHAR
STARTCHAR 2116
ENCODING 8470
SWIDTH 966 0
DWIDTH 14 0
BBX 12 10 1 0
BITMAP
8200
C200
A200
A270
9290
8A90
8A90
8670
8600
8270
ENDCHAR
STARTCHAR 2120
ENCODING 8480
SWIDTH 759 0
DWIDTH 11 0
BBX 9 5 1 5
BITMAP
E880
8980
4D80
2E80
EA80
ENDCHAR
STARTCHAR 2122
ENCODING 8482
SWIDTH 690 0
DWIDTH 10 0
BBX 9 5 0 5
BITMAP
F880
4980
4D80
4E80
4A80
ENDCHAR
STARTCHAR 2126
ENCODING 8486
SWIDTH 759 0
DWIDTH 11 0
BBX 9 10 1 0
BITMAP
3E00
4100
8080
8080
8080
8080
8080
4100
4100
E380
ENDCHAR
STARTCHAR 212E
ENCODING 8494
SWIDTH 621 0
DWIDTH 9 0
BBX 7 8 1 0
BITMAP
7C
82
82
FE
80
80
82
7C
ENDCHAR
STARTCHAR 215B
ENCODING 8539
SWIDTH 690 0
DWIDTH 10 0
BBX 9 10 1 0
BITMAP
C200
4200
4400
4800
4F00
5880
1700
2500
4880
4700
ENDCHAR
STARTCHAR 215C
ENCODING 8540
SWIDTH 690 0
DWIDTH 10 0
BBX 11 10 0 0
BITMAP
7100
0900
7200
0C00
0DC0
FA20
09C0
1140
2220
21C0
ENDCHAR
STARTCHAR 215D
ENCODING 8541
SWIDTH 690 0
DWIDTH 10 0
BBX 10 10 1 0
BITMAP
E200
8200
E400
1800
1B80
F440
1380
2280
4440
4380
ENDCHAR
STARTCHAR 215E
ENCODING 8542
SWIDTH 690 0
DWIDTH 10 0
BBX 11 10 0 0
BITMAP
F900
1100
1200
2400
25C0
4A20
09C0
1140
2220
21C0
ENDCHAR
STARTCHAR 2202
ENCODING 8706
SWIDTH 552 0
DWIDTH 8 0
BBX 6 10 1 0
BITMAP
38
04
04
3C
44
84
84
88
88
70
ENDCHAR
STARTCHAR 2206
ENCODING 8710
SWIDTH 552 0
DWIDTH 8 0
BBX 8 10 0 0
BITMAP
10
18
18
24
24
24
42
42
81
FF
ENDCHAR
STARTCHAR 220F
ENCODING 8719
SWIDTH 690 0
DWIDTH 10 0
BBX 8 13 1 -3
BITMAP
FF
81
81
81
81
81
81
81
81
81
81
81
81
ENDCHAR
STARTCHAR 2211
ENCODING 8721
SWIDTH 621 0
DWIDTH 9 0
BBX 8 13 1 -3
BITMAP
FE
80
40
20
10
08
08
10
20
20
40
80
FF
ENDCHAR
STARTCHAR 2212
ENCODING 8722
SWIDTH 552 0
DWIDTH 8 0
BBX 6 1 1 5
BITMAP
FC
ENDCHAR
STARTCHAR 221A
ENCODING 8730
SWIDTH 552 0
DWIDTH 8 0
BBX 8 11 0 0
BITMAP
01
01
01
02
02
C2
24
24
28
18
18
ENDCHAR
STARTCHAR 221E
ENCODING 8734
SWIDTH 690 0
DWIDTH 10 0
BBX 8 4 1 3
BITMAP
66
99
99
66
ENDCHAR
STARTCHAR 222B
ENCODING 8747
SWIDTH 345 0
DWIDTH 5 0
BBX 5 14 0 -3
BITMAP
18
20
20
20
20
20
20
20
20
20
20
20
20
C0
ENDCHAR
STARTCHAR 2248
ENCODING 8776
SWIDTH 552 0
DWIDTH 8 0
BBX 6 5 1 2
BITMAP
E0
1C
00
E0
1C
ENDCHAR
STARTCHAR 2260
ENCODING 8800
SWIDTH 552 0
DWIDTH 8 0
BBX 6 7 1 2
BITMAP
08
08
FC
20
FC
40
40
ENDCHAR
STARTCHAR 2264
ENCODING 8804
SWIDTH 552 0
DWIDTH 8 0
BBX 6 8 1 1
BITMAP
0C
30
40
C0
30
0C
00
FC
ENDCHAR
STARTCHAR 2265
ENCODING 8805
SWIDTH 552 0
DWIDTH 8 0
BBX 6 8 1 1
BITMAP
C0
30
08
0C
30
C0
00
FC
ENDCHAR
STARTCHAR 25CA
ENCODING 9674
SWIDTH 552 0
DWIDTH 8 0
BBX 6 10 1 0
BITMAP
20
30
48
48
84
84
48
48
30
20
ENDCHAR
STARTCHAR FB00
ENCODING 64256
SWIDTH 552 0
DWIDTH 8 0
BBX 9 11 0 0
BITMAP
3B80
4400
4400
FF00
4400
4400
4400
4400
4400
4400
4400
ENDCHAR
STARTCHAR FB01
ENCODING 64257
SWIDTH 483 0
DWIDTH 7 0
BBX 6 11 0 0
BITMAP
38
44
40
F4
44
44
44
44
44
44
44
ENDCHAR
STARTCHAR FB02
ENCODING 64258
SWIDTH 483 0
DWIDTH 7 0
BBX 6 11 0 0
BITMAP
3C
44
44
F4
44
44
44
44
44
44
44
ENDCHAR
STARTCHAR FB03
ENCODING 64259
SWIDTH 828 0
DWIDTH 12 0
BBX 10 11 0 0
BITMAP
3B80
4440
4400
FF40
4440
4440
4440
4440
4440
4440
4440
ENDCHAR
STARTCHAR FB04
ENCODING 64260
SWIDTH 828 0
DWIDTH 12 0
BBX 10 11 0 0
BITMAP
3BC0
4440
4440
FF40
4440
4440
4440
4440
4440
4440
4440
ENDCHAR
STARTCHAR FEFF
ENCODING 65279
SWIDTH 0 0
DWIDTH 0 0
BBX 0 0 0 0
BITMAP
ENDCHAR
STARTCHAR FFFC
ENCODING 65532
SWIDTH 966 0
DWIDTH 14 0
BBX 13 13 1 -3
BITMAP
F6F8
8008
0000
8008
3728
4D20
CF28
4D20
3748
8008
0000
8008
F6F8
ENDCHAR
STARTCHAR FFFD
ENCODING 65533
SWIDTH 966 0
DWIDTH 14 0
BBX 12 13 1 -2
BITMAP
0400
0600
0F00
1080
36C0
7EE0
F9F0
7BE0
3FC0
1980
0900
0600
0400
ENDCHAR
ENDFONT
